<?xml version="1.0" encoding="iso-8859-1"?>
<!-- Generator: Adobe Illustrator 18.1.1, SVG Export Plug-In . SVG Version: 6.00 Build 0)  -->
<svg version="1.1" id="Capa_1" xmlns="http://www.w3.org/2000/svg" xmlns:xlink="http://www.w3.org/1999/xlink" x="0px" y="0px"
	 viewBox="0 0 300.534 300.534" style="enable-background:new 0 0 300.534 300.534;" xml:space="preserve">
<g>
	<g>
		<path style="fill:#010002;" d="M170.482,143.038c-2.506,4.284-4.976,8.747-7.315,13.27c-2.399,4.708-4.779,9.38-7.071,13.873
			c3.413,1.796,6.176,4.23,8.145,7.226c1.593-2.345,3.425-4.684,4.845-7.25c1.611-2.721,3.133-5.537,4.672-8.354
			c2.088-3.992,3.92-8.043,5.651-12.005c-2.226-2.184-3.998-4.869-5.316-7.918C172.893,142.364,171.694,142.733,170.482,143.038z"/>
		<path style="fill:#010002;" d="M44.76,195.254c4.571,0,9.171,0.823,13.67,2.429c8.336,2.995,15.144,8.389,19.219,14.941
			c0.084-0.048,0.185-0.072,0.269-0.107l0.889-0.442c1.319-0.734,2.255-1.39,3.103-2.16l1.14-1.146
			c0.758-0.829,1.42-1.76,1.981-2.775l0.394-0.704c0.125-0.257,0.209-0.537,0.322-0.8c-6.635-4.171-11.958-10.937-14.923-19.195
			c-2.524-7.041-2.977-14.338-1.563-20.968c-2.423-1.026-4.917-1.629-7.381-1.629c-2.238,0-4.362,0.465-6.319,1.384
			c-3.509,1.647-6.235,4.696-7.882,8.813l-0.471,1.175l-1.181,0.477c-4.105,1.647-7.154,4.374-8.819,7.888
			c-1.981,4.201-1.677,9.01,0.263,13.628C39.796,195.57,42.219,195.254,44.76,195.254z"/>
		<path style="fill:#010002;" d="M50.495,234.397c7.823-3.682,16.636-4.684,24.13-3.007c0.036-0.101,0.09-0.197,0.125-0.292
			l0.322-0.907c0.263-0.931,0.394-1.504,0.489-2.076c0.084-0.549,0.143-1.11,0.167-1.653v-1.647
			c-0.024-0.561-0.09-1.122-0.173-1.665c-0.09-0.567-0.221-1.128-0.376-1.695l-0.227-0.8c-0.09-0.251-0.221-0.489-0.316-0.74
			c-0.37-0.943-0.8-1.862-1.289-2.757c-0.525-0.955-1.116-1.874-1.766-2.769c-3.55-4.869-8.891-8.825-15.162-11.08
			c-3.855-1.378-7.775-2.088-11.653-2.088c-1.432,0-2.81,0.125-4.153,0.316c-1.08,0.155-2.13,0.358-3.139,0.621
			c-0.996,0.274-1.963,0.585-2.882,0.955c-4.768,1.933-8.348,5.269-9.881,9.535c-1.313,3.634-1.092,7.727,0.65,11.808l0.501,1.169
			l-0.501,1.17c-1.742,4.081-1.963,8.157-0.65,11.802c1.528,4.26,5.096,7.584,9.851,9.529
			C38.239,242.434,43.728,237.589,50.495,234.397z"/>
		<path style="fill:#010002;" d="M85.759,246.742c-0.042-0.09-0.066-0.185-0.107-0.269l2.357-1.999l-2.757,1.175
			c-0.776-1.39-1.438-2.333-2.196-3.151l-1.134-1.122c-0.847-0.782-1.778-1.444-2.792-2.005l-0.71-0.406
			c-0.251-0.119-0.501-0.191-0.752-0.304c-0.943-0.412-1.897-0.77-2.858-1.056c-1.038-0.316-2.094-0.555-3.156-0.728
			c-1.426-0.233-2.864-0.382-4.35-0.382c-4.732,0-9.66,1.14-14.267,3.318c-5.108,2.411-9.368,5.865-12.429,9.929
			c-0.644,0.859-1.199,1.766-1.73,2.673c-0.197,0.334-0.459,0.638-0.638,0.979c-0.316,0.609-0.483,1.211-0.74,1.814
			c-2.011,4.797-2.202,9.571-0.286,13.634c1.653,3.509,4.702,6.235,8.819,7.882l1.181,0.465l0.471,1.175
			c1.647,4.111,4.374,7.154,7.882,8.813c1.951,0.919,4.081,1.384,6.319,1.384c2.47,0,4.958-0.603,7.381-1.629
			c-1.42-6.623-0.967-13.927,1.563-20.968C73.819,257.632,79.213,250.829,85.759,246.742z"/>
		<path style="fill:#010002;" d="M107.532,273.897c-3.771-8.013-4.773-16.642-3.031-24.154c-0.09-0.036-0.179-0.084-0.269-0.119
			l-0.913-0.316c-0.937-0.274-1.498-0.394-2.065-0.489c-0.549-0.084-1.104-0.137-1.665-0.161l-0.501-2.995l-0.191,2.972
			l-0.949,0.024c-0.555,0.024-1.11,0.089-1.659,0.173c-0.567,0.084-1.122,0.203-1.677,0.37l-0.853,0.239
			c-0.251,0.089-0.489,0.221-0.74,0.316c-0.931,0.364-1.838,0.788-2.727,1.277c-0.943,0.519-1.856,1.104-2.745,1.748
			c-4.881,3.574-8.843,8.915-11.098,15.204c-1.915,5.328-2.488,10.806-1.766,15.848c0.149,1.05,0.394,2.065,0.662,3.079
			c0.101,0.37,0.131,0.782,0.245,1.14c0.203,0.638,0.501,1.175,0.746,1.772c1.963,4.827,5.221,8.348,9.452,9.869
			c3.646,1.307,7.751,1.086,11.808-0.65l1.17-0.501l1.169,0.501c4.052,1.736,8.157,1.963,11.808,0.65
			c4.231-1.522,7.488-5.048,9.452-9.869C115.629,286.183,110.736,280.693,107.532,273.897z"/>
		<path style="fill:#010002;" d="M152.773,256.003c-4.577,0-9.171-0.823-13.67-2.434c-8.33-2.995-15.132-8.377-19.213-14.917
			c-0.084,0.036-0.191,0.048-0.274,0.095l-0.835,0.406c-1.39,0.77-2.327,1.426-3.145,2.184l-1.116,1.116
			c-0.788,0.865-1.456,1.796-2.035,2.828l-0.406,0.734c-0.119,0.245-0.197,0.513-0.304,0.764c-0.4,0.913-0.74,1.856-1.026,2.834
			c-0.298,1.026-0.531,2.094-0.704,3.168c-0.937,5.955,0.042,12.542,2.888,18.587c2.429,5.149,5.931,9.457,9.923,12.471
			c0.865,0.656,1.76,1.223,2.667,1.748c0.901,0.525,1.82,0.961,2.745,1.354c2.429,1.032,4.917,1.629,7.381,1.629
			c2.238,0,4.362-0.465,6.319-1.384c3.509-1.647,6.235-4.696,7.882-8.813l0.471-1.175l1.181-0.477
			c4.111-1.647,7.16-4.374,8.813-7.882c1.915-4.063,1.73-8.837-0.28-13.634C157.725,255.686,155.315,256.003,152.773,256.003z"/>
		<path style="fill:#010002;" d="M172.839,212.653c-1.533-4.26-5.096-7.584-9.857-9.529c-3.682,5.698-9.171,10.549-15.938,13.736
			c-5.388,2.542-11.2,3.884-16.803,3.884c-2.536,0-5-0.298-7.345-0.841c-0.03,0.084-0.078,0.161-0.107,0.251l-0.322,0.913
			c-0.263,0.931-0.394,1.498-0.489,2.071c-0.084,0.549-0.143,1.116-0.167,1.659l-0.018,0.823l0.012,0.788
			c0.03,0.597,0.095,1.146,0.179,1.701c0.089,0.573,0.221,1.128,0.382,1.707l0.221,0.794c0.095,0.263,0.227,0.513,0.334,0.77
			c0.364,0.925,0.788,1.838,1.271,2.715c0.531,0.967,1.134,1.903,1.796,2.816c3.55,4.845,8.879,8.789,15.132,11.039
			c3.855,1.372,7.775,2.088,11.653,2.088c1.432,0,2.81-0.125,4.153-0.316c1.08-0.149,2.13-0.364,3.145-0.627
			c1.008-0.268,1.987-0.585,2.912-0.967c4.756-1.945,8.324-5.257,9.857-9.523c1.307-3.646,1.086-7.733-0.65-11.808l-0.501-1.169
			l0.501-1.17C173.919,220.386,174.14,216.293,172.839,212.653z"/>
		<path style="fill:#010002;" d="M111.774,204.52c0.042,0.089,0.066,0.185,0.107,0.268l0.4,0.835c0.782,1.396,1.45,2.339,2.19,3.139
			l1.152,1.158c0.829,0.758,1.76,1.42,2.775,1.981l0.728,0.406c0.257,0.119,0.513,0.197,0.77,0.316
			c0.931,0.406,1.874,0.752,2.828,1.038c1.038,0.31,2.094,0.555,3.156,0.728c1.426,0.233,2.87,0.388,4.35,0.388
			c4.732,0,9.66-1.146,14.267-3.324c5.102-2.411,9.374-5.859,12.429-9.929c0.644-0.865,1.199-1.76,1.73-2.667
			c0.197-0.34,0.459-0.644,0.638-0.99c0.316-0.609,0.483-1.211,0.74-1.814c1.981-4.72,2.172-9.422,0.34-13.443
			c-0.03-0.06-0.03-0.125-0.06-0.185c-1.378-2.924-3.771-5.263-6.898-6.934c-0.621-0.334-1.229-0.674-1.915-0.955l-1.181-0.477
			l-0.471-1.17c-1.647-4.105-4.374-7.154-7.882-8.819c-1.951-0.913-4.081-1.378-6.319-1.378c-2.47,0-4.958,0.603-7.381,1.623
			c1.42,6.629,0.967,13.939-1.563,20.974C123.714,193.631,118.326,200.433,111.774,204.52z"/>
		<circle style="fill:#010002;" cx="98.767" cy="225.631" r="11.928"/>
		<path style="fill:#010002;" d="M81.045,191.96c1.874,2.578,4.063,4.785,6.438,6.522c0.907,0.656,1.838,1.265,2.792,1.778
			c0.901,0.483,1.82,0.907,2.757,1.247c0.09,0.03,0.173,0.084,0.269,0.119l0.889,0.304c0.967,0.286,1.528,0.406,2.094,0.501
			c0.567,0.09,1.116,0.137,1.659,0.161l0.489,2.888l0.006,0.03l0.012,0.078l0.006-0.078v-0.03l0.143-2.876l0.889-0.012
			c0.644-0.03,1.187-0.084,1.736-0.173c0.591-0.095,1.146-0.209,1.701-0.37l0.865-0.245c0.245-0.084,0.477-0.209,0.722-0.31
			c0.931-0.37,1.844-0.788,2.733-1.277c0.943-0.525,1.856-1.11,2.745-1.748c2.44-1.772,4.648-3.998,6.528-6.576
			c1.88-2.578,3.443-5.478,4.571-8.622c1.915-5.316,2.488-10.806,1.766-15.842c-0.149-1.056-0.394-2.071-0.662-3.073
			c-0.101-0.376-0.131-0.782-0.245-1.146c-0.203-0.632-0.501-1.175-0.746-1.778c-1.963-4.827-5.221-8.348-9.452-9.869
			c-2.924-1.05-6.128-1.068-9.362-0.167c-0.817,0.227-1.635,0.471-2.452,0.817l-1.17,0.501l-1.17-0.501
			c-0.829-0.352-1.659-0.573-2.482-0.8c-1.492-0.406-2.977-0.692-4.439-0.692c-1.689,0-3.335,0.286-4.887,0.847
			c-4.231,1.522-7.488,5.042-9.452,9.869c-0.245,0.597-0.543,1.134-0.746,1.772c-0.113,0.37-0.149,0.77-0.245,1.146
			c-0.269,1.014-0.507,2.029-0.662,3.079c-0.722,5.042-0.155,10.526,1.766,15.848C77.59,186.453,79.165,189.376,81.045,191.96z"/>
		<path style="fill:#010002;" d="M101.798,208.649c0-0.107-0.048-0.197-0.06-0.304c-0.155-1.528-1.402-2.727-2.971-2.727
			c-1.569,0-2.816,1.199-2.971,2.727c-0.012,0.107-0.06,0.197-0.06,0.304c0,1.665,1.354,3.031,3.031,3.031
			C100.443,211.681,101.798,210.326,101.798,208.649z"/>
		<path style="fill:#010002;" d="M84.619,215.774c1.181,1.175,3.103,1.175,4.284,0c1.181-1.187,1.181-3.109,0-4.29
			c-0.101-0.101-0.233-0.137-0.346-0.227c-1.187-0.889-2.858-0.853-3.944,0.227c-1.074,1.086-1.116,2.757-0.221,3.944
			C84.476,215.541,84.518,215.667,84.619,215.774z"/>
		<path style="fill:#010002;" d="M81.498,222.66c-1.528,0.149-2.733,1.402-2.733,2.972c0,1.575,1.211,2.822,2.739,2.972
			c0.101,0.012,0.185,0.06,0.292,0.06c1.671,0,3.031-1.354,3.031-3.031s-1.354-3.031-3.031-3.031
			C81.689,222.6,81.6,222.648,81.498,222.66z"/>
		<path style="fill:#010002;" d="M88.563,240.005c0.107-0.089,0.239-0.125,0.34-0.227c1.181-1.181,1.181-3.103,0-4.29
			c-1.181-1.175-3.103-1.175-4.284,0c-0.101,0.107-0.143,0.233-0.227,0.352c-0.895,1.187-0.853,2.858,0.227,3.938
			C85.705,240.865,87.376,240.9,88.563,240.005z"/>
		<path style="fill:#010002;" d="M95.741,242.613c0,0.107,0.048,0.191,0.06,0.292c0.155,1.528,1.402,2.739,2.971,2.739
			c1.569,0,2.816-1.211,2.971-2.739c0.012-0.107,0.06-0.191,0.06-0.292c0-1.677-1.354-3.037-3.031-3.037
			S95.741,240.93,95.741,242.613z"/>
		<path style="fill:#010002;" d="M108.976,240.005c1.187,0.889,2.858,0.859,3.938-0.233c1.08-1.08,1.128-2.757,0.227-3.944
			c-0.084-0.107-0.125-0.239-0.227-0.34c-1.181-1.181-3.103-1.181-4.284,0c-1.181,1.175-1.181,3.103,0,4.284
			C108.731,239.886,108.862,239.916,108.976,240.005z"/>
		<path style="fill:#010002;" d="M116.041,228.603c1.528-0.161,2.733-1.396,2.733-2.972c0-1.569-1.211-2.822-2.739-2.971
			c-0.101-0.012-0.191-0.06-0.292-0.06c-1.671,0-3.031,1.354-3.031,3.031c0,1.677,1.354,3.031,3.031,3.031
			C115.85,228.662,115.933,228.615,116.041,228.603z"/>
		<path style="fill:#010002;" d="M112.914,215.774c0.101-0.107,0.143-0.233,0.227-0.352c0.895-1.187,0.853-2.858-0.227-3.944
			c-1.08-1.08-2.757-1.122-3.944-0.221c-0.107,0.089-0.239,0.125-0.34,0.227c-1.181,1.181-1.181,3.103,0,4.29
			C109.811,216.949,111.733,216.949,112.914,215.774z"/>
		<path style="fill:#010002;" d="M147.743,44.531c4.577,0,9.177,0.823,13.676,2.434c8.33,2.989,15.138,8.383,19.225,14.929
			c0.084-0.042,0.185-0.066,0.269-0.107l0.835-0.4c1.402-0.782,2.339-1.45,3.145-2.19l1.146-1.152
			c0.77-0.841,1.432-1.772,1.993-2.775l0.406-0.746c0.119-0.245,0.197-0.513,0.304-0.764c-6.629-4.165-11.958-10.931-14.929-19.195
			c-2.596-7.226-2.912-14.529-1.528-20.962c-2.434-1.026-4.929-1.635-7.411-1.635c-2.238,0-4.368,0.465-6.325,1.384
			c-3.503,1.653-6.229,4.702-7.882,8.819l-0.477,1.181l-1.175,0.471c-4.105,1.647-7.154,4.374-8.813,7.882
			c-1.915,4.063-1.73,8.843,0.28,13.634C142.796,44.847,145.207,44.531,147.743,44.531z"/>
		<path style="fill:#010002;" d="M127.694,87.892c1.528,4.254,5.096,7.578,9.851,9.517c3.682-5.692,9.171-10.543,15.938-13.73
			c7.829-3.688,16.642-4.678,24.142-3.001c0.036-0.101,0.095-0.203,0.125-0.304l3.079,0.257l-2.775-1.14
			c0.268-0.955,0.4-1.522,0.501-2.094c0.084-0.549,0.137-1.104,0.161-1.659l0.018-0.823l-0.012-0.794
			c-0.03-0.591-0.101-1.14-0.179-1.695c-0.09-0.573-0.221-1.134-0.37-1.701l-0.227-0.794c-0.09-0.251-0.215-0.483-0.322-0.728
			c-0.37-0.943-0.794-1.868-1.295-2.769c-0.525-0.955-1.116-1.874-1.76-2.769c-3.556-4.875-8.903-8.825-15.168-11.075
			c-3.855-1.384-7.781-2.088-11.659-2.088c-1.432,0-2.804,0.125-4.147,0.316c-1.08,0.155-2.13,0.358-3.139,0.627
			c-1.014,0.269-1.987,0.585-2.912,0.967c-4.756,1.939-8.318,5.263-9.851,9.517c-1.313,3.652-1.086,7.739,0.65,11.808l0.501,1.17
			l-0.501,1.17C126.608,80.159,126.381,84.234,127.694,87.892z"/>
		<path style="fill:#010002;" d="M188.759,96.025c-0.048-0.09-0.072-0.185-0.113-0.269l-0.4-0.829
			c-0.782-1.408-1.444-2.345-2.19-3.151l-1.116-1.116c-0.871-0.806-1.802-1.468-2.816-2.023l-0.77-0.43
			c-0.245-0.119-0.501-0.149-0.758-0.263c-0.931-0.412-1.891-0.692-2.858-0.979c-1.038-0.31-2.088-0.579-3.145-0.758
			c-1.42-0.233-2.84-0.453-4.314-0.453c-4.726,0-9.654,1.146-14.261,3.318c-5.108,2.411-9.374,5.865-12.429,9.929
			c-0.644,0.859-1.199,1.766-1.73,2.673c-0.197,0.334-0.459,0.644-0.638,0.985c-0.316,0.603-0.483,1.205-0.74,1.814
			c-2.011,4.791-2.196,9.577-0.28,13.634c1.653,3.509,4.702,6.235,8.813,7.882l1.175,0.471l0.477,1.181
			c1.653,4.111,4.38,7.16,7.888,8.819c1.945,0.919,4.075,1.384,6.319,1.384c2.47,0,4.976-0.609,7.411-1.647
			c-1.384-6.432-1.068-13.73,1.528-20.962C176.825,106.92,182.207,100.106,188.759,96.025z"/>
		<path style="fill:#010002;" d="M210.52,123.186c-3.783-8.002-4.785-16.63-3.037-24.142c-0.095-0.03-0.173-0.084-0.269-0.113
			l-0.883-0.316c-0.955-0.269-1.522-0.4-2.1-0.495c-0.549-0.084-1.104-0.143-1.653-0.167h-1.641
			c-0.561,0.024-1.116,0.09-1.665,0.173c-0.573,0.09-1.128,0.221-1.695,0.376l-0.8,0.227c-0.257,0.09-0.489,0.215-0.734,0.31
			c-0.937,0.37-1.862,0.8-2.763,1.295c-0.937,0.519-1.856,1.104-2.739,1.748c-4.881,3.55-8.843,8.897-11.098,15.18
			c-1.802,5.024-2.369,10.078-1.915,14.678c0.048,0.4,0.107,0.782,0.155,1.175c0.143,1.062,0.358,2.094,0.621,3.097
			c0.268,1.02,0.627,1.969,1.014,2.912c0.704,1.742,1.575,3.359,2.655,4.75c1.808,2.315,4.069,4.117,6.808,5.102
			c3.628,1.307,7.727,1.092,11.808-0.65l1.164-0.501l1.175,0.501c2.333,0.996,4.648,1.498,6.916,1.498
			c1.689,0,3.329-0.286,4.875-0.847c4.236-1.522,7.494-5.042,9.457-9.863C218.617,135.478,213.724,129.988,210.52,123.186z"/>
		<path style="fill:#010002;" d="M255.773,105.279c-4.577,0-9.177-0.823-13.682-2.434c-8.33-2.989-15.132-8.377-19.213-14.917
			c-0.089,0.042-0.191,0.054-0.28,0.095l-0.889,0.436c-1.325,0.734-2.255,1.402-3.097,2.16l-1.14,1.146
			c-0.758,0.829-1.42,1.76-1.981,2.775l-0.418,0.758c-0.119,0.239-0.185,0.501-0.298,0.746c-0.4,0.919-0.746,1.862-1.026,2.834
			c-0.31,1.032-0.543,2.094-0.704,3.18c-0.943,5.955,0.042,12.542,2.888,18.587c2.423,5.149,5.931,9.457,9.917,12.471
			c0.865,0.656,1.76,1.223,2.661,1.754c0.901,0.525,1.826,0.961,2.745,1.354c2.423,1.026,4.917,1.629,7.387,1.629h0.006
			c2.238,0,4.35-0.465,6.313-1.384c3.509-1.659,6.235-4.708,7.882-8.819l0.471-1.181l1.181-0.471
			c4.105-1.653,7.148-4.38,8.807-7.888c1.981-4.207,1.677-9.016-0.263-13.64C260.731,104.963,258.315,105.279,255.773,105.279z"/>
		<path style="fill:#010002;" d="M274.676,74.92l0.495-1.164c1.736-4.093,1.969-8.187,0.65-11.826
			c-1.528-4.266-5.108-7.596-9.875-9.535c-3.574,5.531-8.956,10.472-15.908,13.748c-5.394,2.542-11.206,3.884-16.803,3.884
			c-2.536,0-5.006-0.298-7.345-0.835c-0.036,0.084-0.084,0.167-0.113,0.251l-0.322,0.889c-0.268,0.955-0.394,1.522-0.489,2.094
			s-0.149,1.128-0.173,1.689v1.593c0.024,0.567,0.095,1.128,0.173,1.689c0.095,0.549,0.215,1.116,0.37,1.677l0.233,0.806
			c0.095,0.269,0.233,0.525,0.34,0.794c0.364,0.925,0.788,1.832,1.271,2.715c0.531,0.967,1.128,1.903,1.796,2.81
			c3.556,4.857,8.879,8.789,15.132,11.039c3.855,1.384,7.781,2.088,11.665,2.088c1.426,0,2.804-0.125,4.141-0.316
			c1.086-0.155,2.13-0.358,3.139-0.627c1.002-0.269,1.969-0.579,2.882-0.949c4.768-1.939,8.342-5.269,9.881-9.535
			c1.313-3.646,1.086-7.727-0.65-11.808L274.676,74.92z"/>
		<path style="fill:#010002;" d="M214.757,53.785c0.042,0.09,0.066,0.185,0.107,0.269l-2.363,1.981l2.804-1.086
			c0.734,1.325,1.402,2.255,2.166,3.103l1.146,1.146c0.817,0.74,1.748,1.408,2.775,1.987l0.734,0.406
			c0.257,0.119,0.513,0.197,0.758,0.304c0.943,0.412,1.88,0.764,2.84,1.05c1.038,0.31,2.094,0.555,3.151,0.728
			c6.068,1.014,12.536-0.072,18.623-2.93c5.221-2.464,9.452-5.985,12.423-9.929c0.656-0.871,1.247-1.76,1.772-2.667
			c0.543-0.925,0.955-1.856,1.354-2.804c1.939-4.624,2.244-9.434,0.263-13.64c-1.647-3.509-4.702-6.235-8.819-7.882l-1.181-0.471
			l-0.471-1.181c-1.641-4.105-4.368-7.154-7.888-8.819c-1.945-0.919-4.075-1.384-6.313-1.384c-2.47,0-4.958,0.603-7.387,1.629
			c1.42,6.623,0.967,13.933-1.557,20.974C226.69,42.896,221.302,49.704,214.757,53.785z"/>
		<circle style="fill:#010002;" cx="201.755" cy="74.908" r="11.928"/>
		<path style="fill:#010002;" d="M184.039,41.231c1.874,2.584,4.069,4.791,6.444,6.534c0.907,0.662,1.832,1.259,2.787,1.772
			c0.901,0.483,1.826,0.907,2.763,1.247c0.09,0.03,0.173,0.084,0.257,0.113l0.919,0.322c0.925,0.263,1.492,0.394,2.065,0.489
			c0.555,0.084,1.11,0.143,1.665,0.167l1.122,0.012c1.08-0.036,1.623-0.101,2.184-0.185c0.573-0.09,1.128-0.221,1.701-0.376
			l0.782-0.227c0.269-0.095,0.513-0.233,0.782-0.334c0.931-0.364,1.844-0.794,2.727-1.277c0.943-0.519,1.862-1.104,2.745-1.748
			c2.44-1.784,4.654-4.004,6.534-6.575c1.874-2.572,3.437-5.472,4.571-8.604c1.909-5.328,2.482-10.806,1.76-15.854
			c-0.143-1.05-0.388-2.065-0.656-3.073c-0.101-0.376-0.131-0.782-0.245-1.152c-0.203-0.638-0.501-1.175-0.746-1.772
			c-1.963-4.821-5.221-8.348-9.452-9.863c-2.918-1.05-6.116-1.068-9.356-0.167c-0.817,0.227-1.635,0.471-2.452,0.823l-1.164,0.501
			l-1.187-0.507c-0.829-0.358-1.659-0.573-2.488-0.8C196.605,0.286,195.12,0,193.664,0c-1.689,0-3.335,0.286-4.881,0.847
			c-4.386,1.575-7.572,5.197-9.463,9.851c-0.382,0.943-0.746,1.886-1.014,2.912c-0.269,1.002-0.477,2.029-0.621,3.097
			c-0.686,4.905-0.197,10.394,1.76,15.854C180.578,35.73,182.16,38.653,184.039,41.231z"/>
		<path style="fill:#010002;" d="M204.786,57.932c0-0.107-0.054-0.191-0.066-0.292c-0.149-1.528-1.396-2.733-2.972-2.733
			c-1.563,0-2.81,1.211-2.972,2.739c-0.012,0.101-0.06,0.191-0.06,0.292c0,1.671,1.36,3.031,3.031,3.031
			C203.431,60.969,204.786,59.609,204.786,57.932z"/>
		<path style="fill:#010002;" d="M187.613,65.051c1.175,1.181,3.103,1.181,4.284,0c1.181-1.181,1.181-3.103,0-4.284
			c-0.101-0.101-0.233-0.143-0.346-0.227c-1.187-0.895-2.858-0.853-3.938,0.227c-1.086,1.086-1.128,2.757-0.227,3.944
			C187.47,64.818,187.512,64.949,187.613,65.051z"/>
		<path style="fill:#010002;" d="M184.481,71.937c-1.522,0.161-2.733,1.408-2.733,2.971c0,1.569,1.205,2.816,2.739,2.971
			c0.101,0.012,0.191,0.06,0.298,0.06c1.665,0,3.031-1.354,3.031-3.031s-1.36-3.031-3.031-3.031
			C184.672,71.877,184.582,71.925,184.481,71.937z"/>
		<path style="fill:#010002;" d="M191.551,89.282c0.113-0.084,0.245-0.125,0.346-0.227c1.181-1.181,1.181-3.103,0-4.284
			c-1.181-1.181-3.109-1.181-4.284,0c-0.107,0.101-0.143,0.233-0.227,0.346c-0.895,1.187-0.859,2.858,0.227,3.938
			C188.693,90.142,190.37,90.183,191.551,89.282z"/>
		<path style="fill:#010002;" d="M198.735,91.89c0,0.107,0.048,0.191,0.06,0.292c0.149,1.528,1.396,2.733,2.972,2.733
			c1.569,0,2.816-1.211,2.971-2.739c0.012-0.101,0.06-0.191,0.06-0.292c0-1.671-1.354-3.031-3.031-3.031
			S198.735,90.213,198.735,91.89z"/>
		<path style="fill:#010002;" d="M211.958,89.282c1.187,0.901,2.858,0.859,3.938-0.227c1.092-1.08,1.128-2.757,0.233-3.944
			c-0.089-0.107-0.125-0.239-0.233-0.34c-1.175-1.181-3.103-1.181-4.278,0c-1.187,1.181-1.187,3.103,0,4.284
			C211.713,89.157,211.851,89.199,211.958,89.282z"/>
		<path style="fill:#010002;" d="M219.035,77.88c1.528-0.155,2.733-1.402,2.733-2.971c0-1.569-1.211-2.816-2.739-2.971
			c-0.101-0.012-0.179-0.06-0.292-0.06c-1.671,0-3.037,1.354-3.037,3.031c0,1.677,1.36,3.031,3.037,3.031
			C218.838,77.939,218.927,77.892,219.035,77.88z"/>
		<path style="fill:#010002;" d="M215.896,65.051c0.107-0.101,0.143-0.233,0.233-0.346c0.895-1.187,0.859-2.858-0.233-3.938
			c-1.08-1.08-2.751-1.128-3.938-0.227c-0.113,0.084-0.245,0.125-0.34,0.227c-1.187,1.181-1.187,3.103,0,4.284
			C212.799,66.232,214.721,66.232,215.896,65.051z"/>
	</g>
</g>
<g>
</g>
<g>
</g>
<g>
</g>
<g>
</g>
<g>
</g>
<g>
</g>
<g>
</g>
<g>
</g>
<g>
</g>
<g>
</g>
<g>
</g>
<g>
</g>
<g>
</g>
<g>
</g>
<g>
</g>
</svg>
