<?xml version="1.0" encoding="iso-8859-1"?>
<!-- Generator: Adobe Illustrator 18.1.1, SVG Export Plug-In . SVG Version: 6.00 Build 0)  -->
<svg version="1.1" id="Capa_1" xmlns="http://www.w3.org/2000/svg" xmlns:xlink="http://www.w3.org/1999/xlink" x="0px" y="0px"
	 viewBox="0 0 38.754 38.754" style="enable-background:new 0 0 38.754 38.754;" xml:space="preserve">
<g>
	<g>
		<path style="fill:#010002;" d="M25.86,3.76c0.857-0.61,1.807-0.939,2.771-0.966c-0.166-1.144-0.92-2.166-2.082-2.593
			C26.18,0.065,25.801,0,25.428,0c-0.645,0-1.269,0.196-1.797,0.546c0.403,0.24,0.726,0.514,0.971,0.769
			C25.321,2.07,25.685,2.955,25.86,3.76z"/>
		<path style="fill:#010002;" d="M13.223,4.144c0.149-1.097,0.582-2.048,1.28-2.794c0.083-0.089,0.177-0.181,0.279-0.272
			c-0.586-0.499-1.334-0.78-2.108-0.78c-0.421,0-0.849,0.082-1.262,0.256C10.34,1.006,9.646,1.968,9.474,3.039
			c0.215-0.029,0.419-0.043,0.601-0.043C11.393,2.996,12.457,3.548,13.223,4.144z"/>
		<path style="fill:#010002;" d="M9.878,35.858c-0.232,0-0.494-0.019-0.774-0.067c0.13,1.098,0.805,2.103,1.886,2.588
			c0.432,0.193,0.883,0.285,1.328,0.285c0.826,0,1.623-0.324,2.226-0.891c-0.944-1.005-1.267-2.236-1.354-3.202
			C12.187,35.406,11.035,35.858,9.878,35.858z"/>
		<path style="fill:#010002;" d="M25.971,34.757c-0.119,1.188-0.562,2.215-1.305,3.01c-0.093,0.099-0.199,0.199-0.314,0.301
			c0.566,0.438,1.263,0.686,1.984,0.686c0.431,0,0.869-0.086,1.289-0.27c1.107-0.48,1.799-1.504,1.924-2.623
			c-0.152,0.016-0.301,0.023-0.437,0.023C28.024,35.884,26.938,35.49,25.971,34.757z"/>
		<path style="fill:#010002;" d="M34.486,13.124c1.34,0.103,2.466,0.62,3.276,1.427c0.779-0.924,1.019-2.24,0.492-3.417
			c-0.478-1.065-1.457-1.746-2.535-1.892c0.033,0.253,0.041,0.491,0.035,0.704C35.715,11.301,35.094,12.383,34.486,13.124z"/>
		<path style="fill:#010002;" d="M4.146,13.082c-0.731-0.938-1.119-1.981-1.133-3.063C3.009,9.734,3.038,9.404,3.11,9.05
			c-1.012,0.177-1.926,0.825-2.392,1.829c-0.558,1.203-0.313,2.568,0.506,3.506C1.979,13.696,2.97,13.227,4.146,13.082z"/>
		<path style="fill:#010002;" d="M2.935,28.55c0.056-1.119,0.505-2.043,1.011-2.74c-1.292-0.186-2.363-0.77-3.106-1.635
			c-0.711,0.895-0.941,2.129-0.474,3.259c0.464,1.123,1.485,1.842,2.611,1.981C2.933,29.1,2.922,28.806,2.935,28.55z"/>
		<path style="fill:#010002;" d="M37.866,24.358c-0.703,0.75-1.665,1.276-2.816,1.485c0.646,0.857,1.004,1.808,1.047,2.802
			c0.013,0.284-0.006,0.614-0.066,0.968c1.006-0.206,1.9-0.876,2.338-1.891C38.87,26.558,38.628,25.27,37.866,24.358z"/>
		<path style="fill:#010002;" d="M32.428,24.794c0,0-1.098-0.295-2.543-0.817c-1.433-0.509-3.16-1.218-4.674-1.894
			c-0.555,1.248-1.5,2.281-2.681,2.949c0.55,1.418,1.099,2.961,1.505,4.282c0.454,1.45,0.704,2.562,0.704,2.562
			s-0.558-0.979-1.205-2.34c-0.589-1.221-1.235-2.713-1.792-4.128c-0.718,0.283-1.496,0.444-2.314,0.444
			c-0.656,0-1.29-0.1-1.884-0.286c-0.567,1.281-1.2,2.599-1.776,3.685c-0.683,1.305-1.267,2.24-1.267,2.24s0.284-1.084,0.782-2.496
			c0.404-1.164,0.922-2.49,1.455-3.75c-1.329-0.627-2.403-1.701-3.031-3.029c-1.457,0.6-3.044,1.205-4.396,1.658
			C7.8,24.388,6.648,24.68,6.648,24.68s0.996-0.589,2.438-1.306c1.291-0.648,2.833-1.354,4.298-1.965
			c-0.186-0.596-0.286-1.229-0.286-1.884c0-0.794,0.153-1.552,0.422-2.253c-1.413-0.549-2.897-1.183-4.117-1.764
			c-1.375-0.646-2.373-1.209-2.373-1.209s1.152,0.265,2.608,0.716c1.306,0.397,2.826,0.93,4.24,1.469
			c0.671-1.221,1.734-2.196,3.018-2.759c-0.591-1.342-1.177-2.784-1.623-4.033c-0.498-1.371-0.783-2.423-0.783-2.423
			s0.585,0.914,1.265,2.176c0.636,1.167,1.346,2.616,1.957,3.99c0.343-0.097,0.695-0.17,1.058-0.208
			c0.006-0.001,0.012-0.001,0.018-0.002c0.16-0.016,0.322-0.021,0.485-0.025c0.005,0,0.011-0.001,0.017-0.001
			c0.045-0.001,0.092-0.007,0.137-0.007h0.002c0.117,0,0.229,0.011,0.345,0.018c0.007,0,0.015,0.001,0.021,0.001
			c0.612,0.035,1.199,0.156,1.752,0.354c0.026-0.069,0.049-0.134,0.076-0.204c0.61-1.594,1.355-3.323,2.043-4.754
			c0.68-1.435,1.245-2.433,1.245-2.433s-0.265,1.147-0.739,2.646c-0.469,1.502-1.115,3.293-1.738,4.868
			c-0.031,0.076-0.061,0.146-0.092,0.221c0.342,0.178,0.664,0.387,0.965,0.622c0.05,0.039,0.103,0.073,0.15,0.114
			c0.082,0.067,0.155,0.141,0.233,0.212c0.048,0.044,0.099,0.086,0.144,0.131c0.076,0.074,0.147,0.151,0.219,0.228
			c0.043,0.045,0.084,0.091,0.125,0.137c0.332,0.378,0.621,0.792,0.856,1.241c1.259-0.517,2.604-1.019,3.749-1.387
			c1.264-0.414,2.258-0.65,2.258-0.65s-0.836,0.525-2.012,1.13c-1.062,0.555-2.383,1.168-3.65,1.698
			c0.24,0.669,0.379,1.388,0.379,2.139c0,0.602-0.09,1.18-0.246,1.73c0.008,0.004,0.016,0.007,0.023,0.011
			c1.547,0.671,3.23,1.487,4.596,2.218C31.499,24.207,32.428,24.794,32.428,24.794c0.57,0.082,0.982,0.127,1.144,0.143v0.005
			c0.06,0.003,0.157,0.007,0.289,0.007c1.378,0,2.499-0.466,3.251-1.251c0.118-0.123,0.24-0.243,0.338-0.381
			c0.096-0.135,0.167-0.287,0.244-0.437c0.273-0.529,0.436-1.135,0.436-1.816c0-0.518-0.136-1.042-0.375-1.524
			c0.239-0.485,0.375-1.018,0.375-1.552c0-0.756-0.191-1.419-0.516-1.986c-0.083-0.146-0.172-0.285-0.275-0.416
			c-0.104-0.133-0.207-0.266-0.33-0.383c-0.73-0.696-1.776-1.099-3.035-1.099c-0.192,0-0.34,0.009-0.42,0.015v0.006
			c-0.272,0.026-1.118,0.122-2.217,0.318c0.846-0.569,1.494-1.064,1.768-1.318c0.604-0.544,1.605-1.672,1.65-3.209
			c0.006-0.192-0.006-0.411-0.041-0.646C34.69,9.114,34.652,8.951,34.6,8.782c-0.048-0.157-0.104-0.317-0.181-0.481
			c-0.176-0.372-0.432-0.758-0.806-1.136c-0.364-0.369-0.825-0.651-1.34-0.827c-0.171-0.51-0.448-0.98-0.821-1.358
			c-0.621-0.629-1.263-0.94-1.824-1.085c-0.175-0.045-0.338-0.071-0.494-0.088c-0.133-0.015-0.262-0.024-0.379-0.024
			c-0.043,0-0.086,0.015-0.131,0.016c-1.121,0.043-2.234,0.615-3.147,1.649l0.004,0.004c-0.095,0.114-0.304,0.372-0.57,0.721
			c0.048-0.355,0.073-0.61,0.085-0.729h0.006c0.037-0.81-0.059-2.323-1.123-3.438c-0.24-0.252-0.576-0.527-1.021-0.742
			c-0.146-0.07-0.306-0.131-0.476-0.185c-0.16-0.051-0.332-0.092-0.516-0.124c-0.23-0.04-0.475-0.068-0.744-0.068
			c-0.518,0-1.043,0.136-1.525,0.374c-0.484-0.239-1.017-0.374-1.551-0.374c-0.732,0-1.319,0.162-1.785,0.389
			c-0.159,0.078-0.3,0.164-0.432,0.253c-0.146,0.099-0.28,0.201-0.394,0.305c-0.074,0.067-0.141,0.134-0.202,0.199
			c-0.784,0.838-1.148,2.024-1.054,3.43h0.006c0.021,0.216,0.087,0.801,0.211,1.578c-0.473-0.681-0.848-1.172-0.977-1.334
			l0.004-0.003c-0.56-0.641-1.732-1.707-3.346-1.707c-0.179,0-0.382,0.016-0.601,0.054C9.321,4.078,9.157,4.119,8.988,4.174
			c-0.156,0.051-0.316,0.112-0.48,0.193c-0.34,0.167-0.693,0.402-1.04,0.736c-0.373,0.359-0.657,0.82-0.84,1.327
			C6.105,6.596,5.63,6.871,5.25,7.236C4.954,7.52,4.732,7.809,4.557,8.094c-0.098,0.16-0.179,0.318-0.246,0.473
			C4.24,8.731,4.181,8.892,4.139,9.048c-0.096,0.356-0.127,0.684-0.123,0.96c0.014,1.145,0.572,2.253,1.612,3.203
			c0.235,0.225,0.706,0.607,1.317,1.057c-0.844-0.136-1.465-0.204-1.673-0.223V14.04c-0.059-0.003-0.158-0.007-0.29-0.007
			c-1.218,0-2.237,0.364-2.978,0.988c-0.133,0.112-0.249,0.236-0.363,0.365c-0.112,0.126-0.22,0.253-0.312,0.394
			c-0.39,0.596-0.615,1.316-0.615,2.138c0,0.518,0.136,1.042,0.374,1.524c-0.239,0.485-0.374,1.019-0.374,1.552
			c0,0.606,0.119,1.157,0.332,1.646c0.067,0.155,0.152,0.298,0.239,0.438c0.089,0.145,0.19,0.277,0.297,0.405
			c0.728,0.87,1.867,1.392,3.287,1.392c0.193,0,0.342-0.01,0.422-0.015v-0.006c0.196-0.019,0.689-0.073,1.359-0.175
			c-0.461,0.318-0.811,0.584-0.994,0.746c-0.615,0.531-1.643,1.639-1.721,3.175c-0.012,0.228,0.002,0.496,0.051,0.784
			c0.027,0.156,0.062,0.318,0.117,0.486c0.049,0.15,0.115,0.305,0.191,0.463c0.165,0.34,0.395,0.691,0.724,1.039
			c0.359,0.379,0.814,0.67,1.323,0.858c0.161,0.513,0.428,0.989,0.794,1.375c0.35,0.37,0.709,0.631,1.058,0.819
			c0.157,0.086,0.311,0.156,0.462,0.212c0.167,0.062,0.328,0.106,0.484,0.14c0.27,0.059,0.522,0.083,0.739,0.083
			c1.133,0,2.276-0.56,3.221-1.577c0.346-0.34,0.842-0.965,1.369-1.705c-0.185,1.057-0.272,1.855-0.294,2.096h-0.005
			c-0.036,0.774,0.06,2.189,0.999,3.287c0.042,0.049,0.077,0.102,0.123,0.15c0.071,0.074,0.152,0.15,0.24,0.227
			c0.118,0.103,0.254,0.205,0.404,0.302c0.505,0.325,1.193,0.591,2.111,0.591c0.517,0,1.041-0.137,1.524-0.374
			c0.484,0.239,1.018,0.374,1.553,0.374c0.688,0,1.246-0.145,1.698-0.352c0.161-0.072,0.308-0.153,0.442-0.239
			c0.148-0.097,0.281-0.196,0.398-0.298c0.1-0.088,0.194-0.174,0.273-0.258c0.783-0.838,1.148-2.024,1.055-3.431h-0.006
			c-0.021-0.233-0.1-0.901-0.243-1.778c0.535,0.729,0.96,1.25,1.093,1.406l-0.004,0.003c0.967,1.034,2.131,1.601,3.283,1.601
			c0.124,0,0.262-0.01,0.405-0.027c0.155-0.018,0.317-0.044,0.491-0.089c0.154-0.041,0.314-0.099,0.479-0.168
			c0.426-0.179,0.872-0.458,1.307-0.901c0.362-0.369,0.631-0.839,0.799-1.35c0.517-0.182,0.982-0.471,1.354-0.85
			c0.291-0.297,0.506-0.597,0.673-0.891c0.092-0.162,0.168-0.32,0.229-0.477c0.065-0.166,0.118-0.328,0.155-0.483
			c0.084-0.356,0.104-0.685,0.092-0.96c-0.049-1.145-0.641-2.234-1.711-3.15C33.202,25.371,32.868,25.11,32.428,24.794z"/>
		<path style="fill:#010002;" d="M24.092,16.993c-0.178-0.329-0.387-0.634-0.629-0.917c-0.027-0.033-0.053-0.068-0.082-0.1
			c-0.086-0.096-0.166-0.196-0.26-0.286c-0.027-0.026-0.06-0.047-0.088-0.073c-0.095-0.087-0.197-0.165-0.298-0.246
			c-0.033-0.026-0.063-0.055-0.097-0.08c-0.217-0.164-0.445-0.307-0.686-0.437c-0.242-0.132-0.492-0.246-0.756-0.339
			c-0.398-0.141-0.818-0.23-1.256-0.272c-0.088-0.009-0.175-0.022-0.264-0.027c-0.082-0.004-0.16-0.024-0.243-0.025
			c-0.002,0-0.003,0-0.005,0h-0.002c-0.086,0-0.166,0.021-0.252,0.025c-0.081,0.004-0.159,0.017-0.239,0.024
			c-0.088,0.008-0.176,0.014-0.263,0.026c-0.189,0.027-0.375,0.06-0.557,0.106c-0.277,0.07-0.55,0.149-0.807,0.261
			c-1.047,0.455-1.902,1.244-2.472,2.224c-0.143,0.246-0.273,0.499-0.375,0.768c-0.226,0.591-0.364,1.227-0.364,1.897
			c0,0.522,0.099,1.019,0.24,1.496c0.082,0.276,0.178,0.546,0.302,0.803c0.526,1.091,1.406,1.97,2.498,2.493
			c0.26,0.125,0.533,0.221,0.815,0.303c0.471,0.137,0.96,0.233,1.474,0.233c0.693,0,1.351-0.142,1.957-0.382
			c0.271-0.107,0.522-0.242,0.769-0.389c0.942-0.564,1.703-1.399,2.149-2.416c0.113-0.256,0.193-0.527,0.266-0.803
			c0.111-0.43,0.189-0.872,0.189-1.337c0-0.62-0.125-1.206-0.32-1.759C24.342,17.496,24.227,17.241,24.092,16.993z M22.922,19.735
			c-0.011,0.157-0.019,0.315-0.047,0.468c-0.043,0.213-0.106,0.418-0.186,0.614c-0.007,0.017-0.01,0.035-0.016,0.052
			c-0.004,0.01-0.006,0.02-0.01,0.028c-0.26,0.608-0.689,1.126-1.226,1.502c-0.144,0.101-0.3,0.183-0.458,0.261
			c-0.066,0.033-0.127,0.075-0.195,0.104c-0.002,0.001-0.005,0.001-0.007,0.002c-0.342,0.142-0.714,0.218-1.101,0.244
			c-0.086,0.008-0.166,0.027-0.25,0.027c-0.037,0-0.072-0.011-0.109-0.012c-0.239-0.007-0.47-0.037-0.695-0.09
			c-0.136-0.032-0.266-0.076-0.395-0.123c-0.015-0.005-0.03-0.008-0.045-0.014c-0.097-0.037-0.19-0.08-0.283-0.125
			c-0.16-0.078-0.318-0.159-0.463-0.26c-0.316-0.218-0.586-0.49-0.816-0.797c-0.125-0.167-0.232-0.344-0.326-0.531
			c-0.039-0.08-0.085-0.153-0.118-0.235c-0.016-0.038-0.023-0.081-0.037-0.12c-0.042-0.114-0.079-0.23-0.109-0.352
			c-0.062-0.246-0.101-0.5-0.108-0.765c-0.001-0.031-0.009-0.06-0.009-0.091c0-0.057,0.014-0.111,0.017-0.168
			c0.019-0.397,0.097-0.778,0.238-1.13c0.003-0.007,0.004-0.015,0.007-0.022s0.004-0.015,0.007-0.022
			c0.09-0.218,0.2-0.427,0.331-0.62c0.066-0.097,0.148-0.181,0.222-0.271c0.122-0.147,0.253-0.283,0.397-0.408
			c0.262-0.228,0.551-0.424,0.872-0.567c0.032-0.014,0.064-0.029,0.097-0.043c0.023-0.009,0.048-0.013,0.071-0.022
			c0.139-0.054,0.283-0.098,0.43-0.134c0.064-0.015,0.127-0.032,0.192-0.044c0.078-0.014,0.161-0.015,0.241-0.024
			c0.02-0.002,0.039-0.004,0.059-0.006c0.002,0,0.004,0,0.005-0.001c0.108-0.01,0.215-0.033,0.327-0.033
			c0.058,0,0.111,0.014,0.168,0.017c0.003,0,0.004,0,0.006,0.001c0.148,0.007,0.296,0.019,0.439,0.044
			c0.018,0.003,0.037,0.002,0.055,0.006c0.183,0.035,0.354,0.093,0.525,0.154c0.211,0.077,0.41,0.172,0.602,0.286
			c0.005,0.003,0.011,0.006,0.017,0.009c0.144,0.087,0.276,0.185,0.405,0.291c0.004,0.003,0.007,0.006,0.01,0.009
			c0.125,0.103,0.245,0.211,0.355,0.33c0.002,0.003,0.006,0.007,0.009,0.011c0.112,0.123,0.223,0.246,0.317,0.384
			c0.043,0.064,0.072,0.137,0.112,0.204c0.021,0.035,0.038,0.071,0.058,0.106c0.072,0.133,0.142,0.266,0.195,0.409
			c0.016,0.04,0.024,0.083,0.038,0.123c0.103,0.299,0.166,0.615,0.185,0.945c0.002,0.063,0.019,0.123,0.019,0.187
			C22.943,19.596,22.926,19.664,22.922,19.735z"/>
	</g>
</g>
<g>
</g>
<g>
</g>
<g>
</g>
<g>
</g>
<g>
</g>
<g>
</g>
<g>
</g>
<g>
</g>
<g>
</g>
<g>
</g>
<g>
</g>
<g>
</g>
<g>
</g>
<g>
</g>
<g>
</g>
</svg>
