<?xml version="1.0" encoding="iso-8859-1"?>
<!-- Generator: Adobe Illustrator 18.1.1, SVG Export Plug-In . SVG Version: 6.00 Build 0)  -->
<svg version="1.1" id="Capa_1" xmlns="http://www.w3.org/2000/svg" xmlns:xlink="http://www.w3.org/1999/xlink" x="0px" y="0px"
	 viewBox="0 0 35.252 35.252" style="enable-background:new 0 0 35.252 35.252;" xml:space="preserve">
<g>
	<path style="fill:#030104;" d="M33.701,2.52c0.215-0.246,0.413-0.473,0.592-0.677c0.367-0.387,0.56-0.784,0.729-1.006
		c0.15-0.24,0.23-0.367,0.23-0.367s-0.135,0.07-0.389,0.2c-0.254,0.126-0.596,0.342-1.065,0.549
		c-0.229,0.105-0.481,0.222-0.758,0.349c-0.289,0.099-0.584,0.225-0.901,0.347c-0.646,0.227-1.383,0.42-2.178,0.596
		c-0.807,0.151-1.671,0.288-2.607,0.345c-0.928,0.084-1.929,0.084-2.969,0.085c-1.06-0.027-2.154-0.055-3.268-0.084
		c-1.127-0.048-2.321-0.066-3.484-0.079c-2.396,0.01-4.678,0.149-6.767,0.168c-1.04-0.002-2.041-0.001-2.969-0.085
		C6.959,2.804,6.095,2.667,5.288,2.516C4.493,2.34,3.756,2.147,3.111,1.918C2.794,1.795,2.498,1.67,2.209,1.571
		C1.937,1.447,1.687,1.332,1.462,1.229c-0.463-0.202-0.826-0.438-1.075-0.56C0.134,0.539,0,0.47,0,0.47s0.081,0.128,0.233,0.368
		c0.174,0.225,0.346,0.603,0.719,0.995c0.182,0.206,0.383,0.435,0.602,0.684C1.785,2.75,2.057,2.975,2.343,3.232
		c0.568,0.474,1.261,0.96,2.07,1.401H2.869c-1.105,0-2,0.895-2,2v0.231c0,1.105,0.895,2,2,2h2.344
		c-0.223,0.534-0.362,1.258-0.362,2.059c0,1.371,0.404,2.513,0.951,2.855l-2.935-0.13c-1.104-0.049-1.999,0.588-1.999,1.422
		s0.895,1.51,2,1.51h2.68L3.756,33.787c-0.057,0.549,0.344,0.995,0.896,0.995h5.612c0.552,0,0.954-0.444,0.896-0.995L9.369,16.58
		h16.097l-1.792,17.207c-0.057,0.549,0.345,0.995,0.896,0.995h5.613c0.551,0,0.953-0.444,0.896-0.995L29.287,16.58h3.097
		c1.104,0,2-0.676,2-1.51s-0.896-1.471-1.999-1.422l-2.936,0.13c0.548-0.343,0.953-1.485,0.953-2.855
		c0-0.801-0.14-1.524-0.362-2.059h2.344c1.104,0,2-0.895,2-2V6.633c0-1.105-0.896-2-2-2h-1.535c0.805-0.441,1.496-0.925,2.062-1.398
		C33.198,2.978,33.471,2.753,33.701,2.52z M13.452,14.117l-5.054-0.224h1.217c0.711,0,1.287-1.33,1.287-2.97
		c0-0.801-0.139-1.524-0.362-2.059h4.007L13.452,14.117z M21.802,14.117l-1.095-5.253h4.007c-0.223,0.534-0.361,1.258-0.361,2.059
		c0,1.64,0.575,2.97,1.287,2.97h1.217L21.802,14.117z"/>
</g>
<g>
</g>
<g>
</g>
<g>
</g>
<g>
</g>
<g>
</g>
<g>
</g>
<g>
</g>
<g>
</g>
<g>
</g>
<g>
</g>
<g>
</g>
<g>
</g>
<g>
</g>
<g>
</g>
<g>
</g>
</svg>
