<?xml version="1.0" encoding="iso-8859-1"?>
<!-- Generator: Adobe Illustrator 18.1.1, SVG Export Plug-In . SVG Version: 6.00 Build 0)  -->
<svg version="1.1" id="Capa_1" xmlns="http://www.w3.org/2000/svg" xmlns:xlink="http://www.w3.org/1999/xlink" x="0px" y="0px"
	 viewBox="0 0 42.502 42.502" style="enable-background:new 0 0 42.502 42.502;" xml:space="preserve">
<g>
	<path style="fill:#1D1C1A;" d="M24.189,37.707c0,1.623-1.315,2.938-2.938,2.938s-2.938-1.315-2.938-2.938s1.315-2.938,2.938-2.938
		C22.874,34.769,24.189,36.084,24.189,37.707z M14.463,27.983c0-1.623-1.315-2.938-2.938-2.938s-2.938,1.315-2.938,2.938
		s1.315,2.938,2.938,2.938S14.463,29.606,14.463,27.983z M28.126,31.92c-0.785,0-1.522,0.306-2.077,0.86
		c-0.555,0.556-0.861,1.294-0.861,2.078c0,0.785,0.306,1.523,0.861,2.078c1.11,1.109,3.046,1.109,4.155,0
		c0.555-0.555,0.861-1.293,0.861-2.078c0-0.784-0.306-1.522-0.861-2.078C29.649,32.226,28.912,31.92,28.126,31.92z M14.374,31.92
		c-0.785,0-1.523,0.306-2.078,0.86c-0.555,0.556-0.861,1.294-0.861,2.078c0,0.785,0.306,1.523,0.861,2.078
		c1.111,1.109,3.046,1.109,4.156,0c1.146-1.146,1.146-3.01,0-4.156C15.897,32.226,15.159,31.92,14.374,31.92z M31.04,17.08
		c5.906-3.989,6.911-4.783,7.067-4.939c0.756-0.757,0.355-2.434-0.875-3.664c-0.787-0.787-1.763-1.258-2.609-1.258
		c-0.306,0-0.737,0.067-1.054,0.384c-0.2,0.2-1.153,1.454-5.258,7.539C29.291,15.681,30.206,16.33,31.04,17.08z M28.127,18.167
		c-0.785,0-1.522,0.306-2.078,0.86s-0.861,1.293-0.861,2.078s0.306,1.522,0.861,2.077c1.11,1.109,3.046,1.109,4.155,0
		c0.555-0.555,0.861-1.293,0.861-2.077c0-0.785-0.306-1.523-0.861-2.078C29.65,18.473,28.912,18.167,28.127,18.167z M30.976,25.044
		c-0.785,0-1.523,0.306-2.078,0.86c-0.555,0.556-0.86,1.293-0.86,2.078c0,1.62,1.318,2.938,2.938,2.938s2.938-1.317,2.938-2.938
		C33.914,26.361,32.596,25.044,30.976,25.044z M3.418,13.6c-0.146-0.061-0.303-0.091-0.469-0.091c-0.943,0-2.029,0.968-2.581,2.301
		c-0.342,0.825-0.45,1.682-0.306,2.412c0.13,0.656,0.45,1.121,0.9,1.308c0.229,0.095,1.49,0.434,7.317,1.633
		c0.587-1.116,1.314-2.148,2.169-3.081C4.912,14.427,3.664,13.702,3.418,13.6z M12.296,19.028c-0.556,0.554-0.861,1.293-0.861,2.078
		c0,0.784,0.306,1.522,0.861,2.077c1.111,1.109,3.046,1.109,4.156,0c1.146-1.146,1.146-3.01,0-4.155
		c-0.555-0.555-1.293-0.86-2.078-0.86C13.589,18.168,12.852,18.474,12.296,19.028z M27.054,14.526C31.195,8.27,32,6.89,32.109,6.629
		c0.187-0.452,0.084-1.006-0.288-1.562c-0.414-0.618-1.096-1.148-1.921-1.489c-1.564-0.647-3.329-0.349-3.72,0.595
		c-0.111,0.268-0.527,1.857-2.066,9.438C25.124,13.811,26.109,14.118,27.054,14.526z M21.251,15.319
		c-1.623,0-2.938,1.315-2.938,2.938s1.315,2.938,2.938,2.938c1.623,0,2.938-1.315,2.938-2.938S22.874,15.319,21.251,15.319z
		 M21.251,22.672c-2.928,0-5.31,2.382-5.31,5.311c0,2.927,2.382,5.309,5.31,5.309s5.31-2.382,5.31-5.309
		C26.56,25.054,24.178,22.672,21.251,22.672z M42.133,15.81c-0.65-1.567-2.071-2.615-3.051-2.21
		c-0.247,0.103-1.497,0.828-7.03,4.481c0.854,0.933,1.582,1.965,2.169,3.081c5.826-1.199,7.088-1.538,7.317-1.633
		c0.451-0.187,0.771-0.651,0.901-1.308C42.584,17.491,42.475,16.635,42.133,15.81z M22.744,13.406
		c1.49-7.646,1.716-9.285,1.716-9.576c-0.001-1.07-1.47-1.973-3.209-1.973S18.042,2.76,18.042,3.83c0,0.292,0.226,1.933,1.715,9.576
		C20.753,13.304,21.749,13.304,22.744,13.406z M15.446,14.525c0.945-0.408,1.931-0.715,2.941-0.915
		c-1.54-7.582-1.956-9.171-2.067-9.438c-0.246-0.594-0.998-0.962-1.963-0.962c-0.569,0-1.176,0.127-1.756,0.367
		c-1.606,0.666-2.618,2.062-2.21,3.05C10.5,6.89,11.306,8.271,15.446,14.525z M11.461,17.08c0.833-0.748,1.749-1.398,2.729-1.938
		c-4.105-6.085-5.059-7.339-5.258-7.539C8.615,7.287,8.184,7.219,7.878,7.219c-0.847,0-1.823,0.471-2.61,1.258
		c-1.23,1.229-1.63,2.908-0.874,3.664C4.587,12.333,5.767,13.235,11.461,17.08z"/>
</g>
<g>
</g>
<g>
</g>
<g>
</g>
<g>
</g>
<g>
</g>
<g>
</g>
<g>
</g>
<g>
</g>
<g>
</g>
<g>
</g>
<g>
</g>
<g>
</g>
<g>
</g>
<g>
</g>
<g>
</g>
</svg>
