<?xml version="1.0" encoding="iso-8859-1"?>
<!-- Generator: Adobe Illustrator 16.0.0, SVG Export Plug-In . SVG Version: 6.00 Build 0)  -->
<!DOCTYPE svg PUBLIC "-//W3C//DTD SVG 1.1//EN" "http://www.w3.org/Graphics/SVG/1.1/DTD/svg11.dtd">
<svg version="1.1" id="Capa_1" xmlns="http://www.w3.org/2000/svg" xmlns:xlink="http://www.w3.org/1999/xlink" x="0px" y="0px"
	 width="50.585px" height="50.584px" viewBox="0 0 50.585 50.584" style="enable-background:new 0 0 50.585 50.584;"
	 xml:space="preserve">
<g>
	<g>
		<path d="M50.133,27.977c-0.244-0.322-0.533-0.617-0.859-0.875c-0.521-0.414-0.968-0.734-1.406-1.008
			c-0.895-0.559-1.941-0.921-3.205-1.106c-0.323-0.047-0.655-0.071-1.014-0.071c-0.664,0-1.301,0.08-1.916,0.158
			c-0.257,0.032-0.512,0.065-0.768,0.091c-0.955,0.097-1.908,0.203-2.861,0.31c-0.695,0.078-1.39,0.156-2.084,0.23
			c-1.416,0.149-2.832,0.29-4.248,0.429c-0.125,0.012-0.25,0.023-0.375,0.033l0.687-8.034l1.516-0.29
			c1.085-0.207,2.17-0.414,3.253-0.629c0.597-0.119,1.273-0.254,1.927-0.485c0.857-0.304,1.104-0.867,1.176-1.176
			c0.07-0.309,0.095-0.923-0.545-1.569c-0.998-1.009-2.127-1.52-3.358-1.52c-0.269,0-0.544,0.025-0.82,0.074
			c-0.477,0.085-0.951,0.179-1.427,0.272l-0.686,0.134l-0.627,0.12c0.004-0.032,0.008-0.065,0.012-0.097
			c0.103-0.913,0.21-1.858,0.345-2.773c0.186-1.262,0.379-2.567,0.932-3.742c0.537-1.143,0.203-2.267-0.892-3.008
			c-0.229-0.156-0.466-0.277-0.655-0.375c-1.012-0.522-2.138-0.916-3.651-1.278c-0.194-0.047-0.406-0.07-0.63-0.07
			c-0.086,0-0.17,0.003-0.254,0.01C27.174,1.772,26.736,2,26.469,2.374c-0.268,0.37-0.344,0.85-0.217,1.351
			c0.098,0.387,0.254,0.733,0.406,1.05c0.438,0.898,0.705,1.895,0.818,3.047c0.202,2.047,0.086,4.069-0.037,6.211l-0.006,0.088
			l-3.282,0.654l-2.097,0.418c0.091-1.239,0.193-2.415,0.504-3.556c0.317-1.158-0.014-2.068-1.011-2.783
			c-0.218-0.156-0.477-0.332-0.797-0.446l-0.213-0.076c-0.729-0.26-1.483-0.529-2.254-0.748c-0.525-0.15-1.06-0.178-1.514-0.187
			c-0.006,0-0.046,0-0.052,0c-0.802,0-1.203,0.357-1.399,0.656c-0.199,0.304-0.365,0.828-0.028,1.596
			c0.128,0.291,0.288,0.546,0.43,0.771l0.068,0.108c0.541,0.868,0.869,1.657,1.001,2.411c0.151,0.858,0.236,1.72,0.326,2.633
			l0.039,0.391c0.01,0.1,0.014,0.204,0.014,0.315l-0.101,0.021c-0.644,0.133-1.275,0.263-1.908,0.381
			c-0.483,0.09-0.968,0.173-1.453,0.256c-0.619,0.106-1.238,0.212-1.854,0.332l-0.136,0.023c-0.387,0.062-1.417,0.225-1.61,1.295
			c-0.203,1.126,0.789,1.61,1.115,1.769c0.044,0.022,0.088,0.042,0.128,0.064c1.226,0.665,2.5,1.002,3.786,1.002l0.145-0.001
			c0.634-0.013,1.245-0.072,1.885-0.138c0.008,2.416-0.044,4.667-0.157,6.834L15.891,28.3c-1.391,0.228-2.782,0.457-4.175,0.673
			l-0.123,0.02c-2.907,0.451-5.914,0.92-8.883,1.024c-0.454,0.017-0.937,0.099-1.437,0.244c-0.825,0.241-1.119,0.715-1.221,1.07
			s-0.103,0.917,0.475,1.562c0.119,0.134,0.244,0.253,0.372,0.355c0.828,0.659,1.651,1.139,2.516,1.459
			c0.596,0.221,1.203,0.333,1.802,0.333c0.524,0,1.053-0.086,1.571-0.256c1.623-0.528,3.38-0.945,5.529-1.312
			c3.083-0.524,6.146-1,9.102-1.407c2.602-0.36,5.261-0.664,7.834-0.957l0.804-0.093c2.396-0.272,4.93-0.405,7.739-0.405
			c0.749,0,1.519,0.025,2.262,0.053l0.249,0.009c1.373,0.048,2.746,0.099,4.119,0.149l1.951,0.071
			c0.27,0.011,0.539,0.019,0.808,0.019c0.785,0,1.423-0.069,2.009-0.219c0.857-0.221,1.188-0.701,1.314-1.067
			C50.632,29.26,50.67,28.677,50.133,27.977z M26.614,26.688L21.558,27.6c-0.007-2.3,0.069-4.585,0.143-6.805l0.017-0.522
			l5.585-1.088C27.182,21.802,26.956,24.273,26.614,26.688z"/>
		<path d="M37.319,36.599c-2.015-1.165-4.15-1.896-5.789-2.403c-0.42-0.129-0.812-0.252-1.24-0.323
			c-0.107-0.019-0.207-0.026-0.301-0.026c-0.487,0-0.908,0.219-1.153,0.598c-0.253,0.391-0.273,0.893-0.06,1.375
			c0.229,0.51,0.477,0.924,0.756,1.265c0.715,0.87,1.443,1.761,2.236,2.591c1.745,1.828,3.682,3.818,6.098,6.268
			c0.394,0.397,0.881,0.769,1.41,1.068c0.369,0.21,0.737,0.316,1.098,0.316c0.662,0,1.477-0.406,1.765-1.545
			c0.096-0.373,0.133-0.731,0.17-1.078c0.014-0.133,0.028-0.269,0.047-0.399c0.006-0.048,0.01-0.096,0.008-0.144
			c-0.02-1.938-0.66-3.619-1.903-4.996C39.52,38.124,38.464,37.26,37.319,36.599z"/>
		<path d="M23.491,35.573c-1.173-1.025-2.385-1.715-3.706-2.109c-0.265-0.079-0.536-0.125-0.807-0.139
			c-0.054-0.002-0.105-0.004-0.154-0.004c-0.208,0-0.842,0-1.306,0.498c-0.437,0.469-0.437,1.099-0.437,1.306
			c0,0.505-0.126,0.979-0.386,1.452c-0.332,0.604-0.662,1.188-1.045,1.715c-1.503,2.064-3.288,4.09-5.304,6.02
			c-0.347,0.332-0.699,0.659-1.051,0.986c-0.354,0.329-0.708,0.658-1.057,0.992c-0.251,0.24-0.671,0.641-0.805,1.348
			c-0.097,0.514,0.216,1.014,0.719,1.15c0.176,0.049,0.356,0.074,0.534,0.074c0.468,0,0.828-0.168,1.042-0.268
			c0.229-0.105,0.46-0.211,0.691-0.314c0.792-0.358,1.611-0.73,2.397-1.181c2.967-1.696,5.399-3.907,7.387-5.849
			c0.156-0.152,0.31-0.307,0.465-0.459c0.904-0.898,1.758-1.746,2.833-2.262c0.532-0.254,0.745-0.638,0.829-0.914
			c0.086-0.283,0.122-0.733-0.197-1.271C23.961,36.056,23.739,35.79,23.491,35.573z"/>
	</g>
</g>
<g>
</g>
<g>
</g>
<g>
</g>
<g>
</g>
<g>
</g>
<g>
</g>
<g>
</g>
<g>
</g>
<g>
</g>
<g>
</g>
<g>
</g>
<g>
</g>
<g>
</g>
<g>
</g>
<g>
</g>
</svg>
