<?xml version="1.0" encoding="iso-8859-1"?>
<!-- Generator: Adobe Illustrator 18.1.1, SVG Export Plug-In . SVG Version: 6.00 Build 0)  -->
<svg version="1.1" id="Capa_1" xmlns="http://www.w3.org/2000/svg" xmlns:xlink="http://www.w3.org/1999/xlink" x="0px" y="0px"
	 viewBox="0 0 47.794 47.794" style="enable-background:new 0 0 47.794 47.794;" xml:space="preserve">
<g>
	<path style="fill:#1D1C1A;" d="M23.897,0C10.72,0,0,10.72,0,23.897s10.72,23.897,23.897,23.897s23.897-10.721,23.897-23.897
		S37.074,0,23.897,0z M24.897,37.885c-0.161,0.058-0.327,0.105-0.5,0.134c-0.163,0.029-0.328,0.052-0.5,0.052
		c-1.642,0-2.974-1.331-2.974-2.974s1.331-2.974,2.974-2.974c0.171,0,0.337,0.023,0.5,0.05c0.173,0.029,0.338,0.076,0.5,0.134
		c1.148,0.412,1.974,1.499,1.974,2.789S26.045,37.473,24.897,37.885z M28.586,22.872c-0.364,0.168-0.72,0.364-1.07,0.574
		c-1.144-0.356-2.359-0.548-3.619-0.548c-6.727,0-12.201,5.473-12.201,12.201c0,4.244,2.181,7.985,5.478,10.171
		C8.088,42.413,1.496,33.926,1.496,23.897c0-12.372,10.029-22.401,22.401-22.401c6.186,0,11.201,5.015,11.201,11.201
		C35.098,17.209,32.43,21.098,28.586,22.872z M27.871,12.696c0,2.191-1.783,3.974-3.974,3.974s-3.974-1.783-3.974-3.974
		s1.783-3.974,3.974-3.974C26.088,8.722,27.871,10.505,27.871,12.696z"/>
</g>
<g>
</g>
<g>
</g>
<g>
</g>
<g>
</g>
<g>
</g>
<g>
</g>
<g>
</g>
<g>
</g>
<g>
</g>
<g>
</g>
<g>
</g>
<g>
</g>
<g>
</g>
<g>
</g>
<g>
</g>
</svg>
