<?xml version="1.0" encoding="iso-8859-1"?>
<!-- Generator: Adobe Illustrator 18.1.1, SVG Export Plug-In . SVG Version: 6.00 Build 0)  -->
<svg version="1.1" id="Capa_1" xmlns="http://www.w3.org/2000/svg" xmlns:xlink="http://www.w3.org/1999/xlink" x="0px" y="0px"
	 viewBox="0 0 46.478 46.478" style="enable-background:new 0 0 46.478 46.478;" xml:space="preserve">
<g>
	<g>
		<path style="fill:#030104;" d="M42.776,44.5c-0.015-0.004-0.028-0.01-0.044-0.016c-0.748-0.246-1.492-0.507-2.246-0.736
			c-2.859-0.869-5.699-1.795-8.494-2.854c-2.68-1.014-5.302-2.15-7.811-3.539c-0.062-0.033-0.124-0.068-0.197-0.109
			c0.045-0.051,0.08-0.094,0.119-0.133c1.053-1.078,2.105-2.16,3.162-3.234c0.673-0.686,1.357-1.358,2.033-2.042
			c0.191-0.194,0.367-0.404,0.546-0.612c0.098-0.113,0.139-0.251,0.114-0.404c-0.021-0.139-0.084-0.258-0.195-0.341
			c-0.186-0.138-0.369-0.286-0.572-0.396c-0.484-0.26-0.979-0.51-1.474-0.75c-0.511-0.246-1.029-0.475-1.566-0.66
			c-0.161-0.055-0.323-0.068-0.487-0.04c-0.121,0.021-0.242,0.058-0.356,0.103c-0.217,0.082-0.428,0.176-0.644,0.262
			c-0.778,0.305-1.58,0.535-2.388,0.748c-1.007,0.266-2.023,0.49-3.055,0.637c-0.137,0.02-0.274,0.031-0.438,0.05
			c0.037-0.063,0.059-0.103,0.083-0.139c0.078-0.121,0.161-0.24,0.236-0.364c0.117-0.191,0.147-0.398,0.066-0.609
			c-0.065-0.168-0.134-0.336-0.227-0.488c-0.274-0.445-0.609-0.846-0.961-1.231c-0.211-0.231-0.456-0.416-0.732-0.563
			c-0.332-0.178-0.672-0.342-1.031-0.457c-0.18-0.059-0.37-0.086-0.553-0.139c-0.312-0.088-0.702,0.262-0.625,0.629
			c0.045,0.217,0.071,0.438,0.098,0.657c0.058,0.478,0.038,0.952-0.157,1.399c-0.183,0.42-0.372,0.84-0.591,1.242
			c-0.501,0.925-1.128,1.765-1.783,2.584c-1.132,1.418-2.359,2.752-3.647,4.028c-0.997,0.988-2.025,1.946-3.033,2.923
			c-0.278,0.27-0.542,0.553-0.803,0.84C4.96,40.924,4.966,41.26,5.13,41.44c0.047,0.052,0.127,0.089,0.198,0.104
			c0.148,0.029,0.3,0.02,0.439-0.049c0.18-0.09,0.365-0.172,0.534-0.279c0.605-0.383,1.207-0.771,1.809-1.161
			c1.882-1.214,3.663-2.56,5.342-4.042c0.461-0.406,0.937-0.795,1.402-1.197c0.122-0.105,0.246-0.121,0.384-0.053
			c0.125,0.061,0.251,0.122,0.371,0.191c1.115,0.649,2.22,1.314,3.273,2.062c0.036,0.025,0.071,0.055,0.116,0.088
			c-0.34,0.311-0.668,0.618-1.003,0.916c-1.336,1.189-2.751,2.277-4.217,3.301c-1.652,1.151-3.356,2.219-5.146,3.145
			c-0.284,0.146-0.565,0.299-0.841,0.46c-0.11,0.063-0.211,0.149-0.298,0.244c-0.194,0.209-0.129,0.526,0.133,0.644
			c0.091,0.041,0.197,0.061,0.299,0.068c0.259,0.02,0.515-0.02,0.767-0.075c0.57-0.123,1.123-0.306,1.672-0.502
			c3.248-1.162,6.314-2.692,9.205-4.573c0.692-0.449,1.365-0.929,2.048-1.393c0.237-0.161,0.269-0.158,0.484,0.025
			c2.127,1.818,4.252,3.64,6.382,5.455c0.562,0.479,1.141,0.937,1.711,1.405c0.11,0.091,0.236,0.142,0.371,0.185
			c0.271,0.086,0.547,0.078,0.827,0.051c0.467-0.045,0.937-0.076,1.403-0.114c0.438-0.035,0.875-0.069,1.312-0.104
			c0.422-0.035,0.843-0.074,1.265-0.11c0.42-0.036,0.844-0.066,1.265-0.103c0.653-0.058,1.305-0.117,1.958-0.175
			c0.52-0.046,1.039-0.084,1.557-0.135c0.652-0.065,1.303-0.134,1.953-0.214c0.266-0.033,0.527-0.096,0.788-0.156
			c0.133-0.031,0.25-0.098,0.299-0.24c0-0.072,0-0.145,0-0.217C43.13,44.677,42.984,44.556,42.776,44.5z M23.771,31.633
			c-0.28,0.396-0.555,0.796-0.849,1.181c-0.567,0.742-1.157,1.466-1.789,2.155c-0.122,0.133-0.261,0.249-0.39,0.375
			c-0.092,0.089-0.193,0.104-0.311,0.059c-0.389-0.152-0.784-0.287-1.167-0.451c-0.851-0.367-1.698-0.746-2.544-1.123
			c-0.173-0.078-0.336-0.176-0.521-0.272c0.045-0.062,0.073-0.11,0.111-0.147c0.252-0.258,0.504-0.518,0.762-0.771
			c0.04-0.039,0.108-0.058,0.166-0.069c0.399-0.076,0.8-0.148,1.2-0.223c0.81-0.148,1.621-0.299,2.432-0.445
			c0.801-0.146,1.602-0.287,2.403-0.43c0.152-0.027,0.304-0.055,0.457-0.079c0.045-0.007,0.091-0.008,0.178-0.014
			C23.853,31.482,23.82,31.563,23.771,31.633z"/>
		<path style="fill:#030104;" d="M5.771,24.633c0.172-0.234,0.308-0.488,0.425-0.753c0.361-0.817,0.578-1.675,0.742-2.549
			c0.138-0.737,0.207-1.481,0.253-2.228c0.005-0.076,0.018-0.151,0.028-0.235c0.416-0.074,0.821-0.149,1.227-0.218
			c0.706-0.12,1.413-0.236,2.12-0.354c0.727-0.121,1.454-0.241,2.181-0.361c0.595-0.098,1.19-0.194,1.785-0.292
			c0.666-0.109,1.332-0.218,1.999-0.326c0.616-0.1,1.231-0.199,1.847-0.298c0.616-0.099,1.232-0.196,1.848-0.293
			c0.565-0.089,1.13-0.178,1.696-0.265c0.571-0.088,1.141-0.174,1.712-0.26c0.525-0.079,1.05-0.158,1.575-0.236
			c0.52-0.077,1.041-0.154,1.561-0.229c0.531-0.077,1.062-0.154,1.593-0.23c0.545-0.079,1.092-0.157,1.637-0.236
			c0.48-0.069,0.959-0.137,1.439-0.204c0.485-0.068,0.971-0.133,1.456-0.199c0.435-0.058,0.869-0.117,1.304-0.171
			c0.25-0.031,0.502-0.05,0.752-0.082c0.123-0.016,0.18,0.042,0.145,0.179c-0.018,0.064-0.044,0.127-0.075,0.186
			c-0.067,0.128-0.135,0.256-0.211,0.378c-0.485,0.781-1.004,1.539-1.58,2.256c-0.213,0.265-0.446,0.514-0.675,0.766
			c-0.161,0.177-0.357,0.228-0.59,0.153c-0.387-0.125-0.777-0.241-1.164-0.364c-0.859-0.274-1.715-0.557-2.6-0.74
			c-0.314-0.065-0.629-0.114-0.953-0.08c-0.121,0.013-0.231,0.048-0.328,0.125c-0.133,0.108-0.161,0.234-0.072,0.383
			c0.047,0.079,0.105,0.155,0.171,0.218c0.151,0.147,0.308,0.29,0.47,0.427c0.477,0.403,0.963,0.797,1.436,1.205
			c1.031,0.891,2.006,1.845,2.971,2.808c0.395,0.394,0.803,0.774,1.212,1.153c0.272,0.252,0.562,0.486,0.886,0.675
			c0.229,0.135,0.471,0.222,0.742,0.236c0.538,0.029,0.959-0.237,1.141-0.742c0.098-0.272,0.121-0.553,0.106-0.839
			c-0.022-0.443-0.137-0.865-0.307-1.272c-0.271-0.647-0.666-1.209-1.161-1.703c-0.156-0.156-0.307-0.316-0.467-0.481
			c0.06-0.033,0.104-0.059,0.148-0.082c0.562-0.294,1.123-0.589,1.688-0.879c1.035-0.534,2.072-1.066,3.109-1.596
			c0.076-0.039,0.16-0.075,0.246-0.089c0.188-0.032,0.377-0.053,0.567-0.072c0.349-0.035,0.698-0.064,1.048-0.101
			c0.118-0.012,0.236-0.032,0.35-0.062c0.401-0.105,0.603-0.528,0.431-0.902c-0.076-0.165-0.175-0.316-0.313-0.438
			c-0.123-0.11-0.244-0.223-0.371-0.329c-0.974-0.816-1.988-1.579-3.027-2.309c-0.334-0.234-0.68-0.451-1.022-0.671
			c-0.198-0.127-0.419-0.182-0.651-0.145c-0.228,0.036-0.461,0.069-0.679,0.144c-0.885,0.304-1.794,0.503-2.712,0.671
			c-0.72,0.131-1.439,0.265-2.16,0.39c-0.594,0.103-1.191,0.192-1.785,0.29c-0.535,0.088-1.067,0.179-1.602,0.269
			c-0.134,0.023-0.268,0.046-0.417,0.072c0.015-0.033,0.019-0.049,0.028-0.059c0.066-0.065,0.132-0.131,0.201-0.191
			c1.287-1.101,2.552-2.227,3.793-3.379c0.367-0.34,0.723-0.694,1.084-1.04c0.076-0.074,0.121-0.16,0.14-0.268
			c0.06-0.348,0.009-0.678-0.144-0.994c-0.174-0.358-0.427-0.659-0.715-0.928c-0.709-0.664-1.549-1.067-2.505-1.224
			c-0.254-0.042-0.51-0.076-0.771-0.046c-0.19,0.022-0.327,0.115-0.416,0.282c-0.094,0.181-0.16,0.37-0.143,0.578
			c0.014,0.154,0.025,0.309,0.057,0.46c0.082,0.382,0.054,0.742-0.137,1.094c-0.223,0.413-0.414,0.842-0.632,1.258
			c-0.753,1.446-1.51,2.889-2.268,4.332c-0.185,0.352-0.189,0.355-0.572,0.429c-1.173,0.229-2.346,0.46-3.522,0.676
			c-1.14,0.21-2.284,0.399-3.426,0.602c-1.38,0.245-2.76,0.491-4.138,0.743c-1.348,0.247-2.694,0.505-4.043,0.752
			c-0.63,0.115-1.267,0.177-1.909,0.151c-0.03-0.001-0.06-0.008-0.092-0.013c-0.152-0.296-0.295-0.594-0.455-0.882
			c-0.12-0.216-0.253-0.425-0.395-0.628c-0.06-0.086-0.148-0.161-0.24-0.214c-0.224-0.132-0.5-0.005-0.552,0.248
			c-0.024,0.116-0.032,0.235-0.041,0.354c-0.031,0.401-0.053,0.803-0.09,1.204c-0.06,0.646-0.216,1.269-0.455,1.872
			c-0.256,0.645-0.597,1.246-0.958,1.836c-0.105,0.172-0.207,0.345-0.246,0.547c-0.007,0.034-0.032,0.064-0.048,0.095
			c0,0.382,0,0.764,0,1.146c0.02,0.078,0.049,0.156,0.058,0.235c0.043,0.427,0.123,0.847,0.255,1.256
			c0.099,0.306,0.226,0.597,0.418,0.859c0.113,0.152,0.258,0.251,0.445,0.283C4.992,25.216,5.44,25.082,5.771,24.633z"/>
		<path style="fill:#030104;" d="M9.116,9.011c0.147,0.061,0.3,0.083,0.455,0.067C9.935,9.039,10.3,9.007,10.66,8.942
			c1.278-0.23,2.556-0.457,3.829-0.713c1.445-0.29,2.885-0.6,4.324-0.919c1.992-0.442,3.967-0.952,5.931-1.505
			c0.858-0.241,1.716-0.476,2.575-0.716c0.163-0.046,0.328-0.093,0.483-0.159c0.328-0.14,0.48-0.39,0.438-0.817
			c-0.02-0.2-0.105-0.377-0.207-0.545c-0.615-1.025-1.361-1.943-2.264-2.73C25.365,0.485,24.941,0.157,24.414,0
			c-0.124,0-0.248,0-0.372,0c-0.193,0.095-0.279,0.261-0.312,0.464c-0.01,0.061-0.024,0.122-0.029,0.183
			c-0.022,0.267-0.046,0.535-0.06,0.803c-0.005,0.088-0.035,0.143-0.108,0.187c-0.291,0.177-0.572,0.371-0.871,0.532
			c-0.567,0.306-1.14,0.602-1.717,0.888c-1.358,0.673-2.729,1.317-4.126,1.905c-2.28,0.96-4.59,1.843-6.902,2.721
			C9.696,7.767,9.478,7.863,9.27,7.976C8.994,8.126,8.856,8.34,8.915,8.76C8.933,8.886,9.001,8.964,9.116,9.011z"/>
		<path style="fill:#030104;" d="M13.939,20.736c-0.09-0.104-0.203-0.191-0.317-0.269c-0.094-0.064-0.204-0.095-0.324-0.064
			C13,20.48,12.79,20.784,12.849,21.086c0.032,0.166,0.085,0.33,0.151,0.485c0.202,0.47,0.46,0.911,0.75,1.333
			c0.816,1.189,1.879,2.104,3.13,2.808c1.329,0.747,2.761,1.215,4.249,1.513c0.621,0.124,1.25,0.215,1.877,0.305
			c0.352,0.051,0.708,0.086,1.063,0.098c0.779,0.025,1.558,0.031,2.415,0.047c0.816-0.031,1.708-0.062,2.6-0.1
			c0.574-0.023,1.143-0.08,1.705-0.19c0.34-0.065,0.672-0.156,0.979-0.326c0.423-0.235,0.576-0.612,0.572-1.073
			c-0.002-0.115-0.034-0.227-0.107-0.318c-0.076-0.096-0.154-0.194-0.248-0.273c-0.277-0.234-0.591-0.415-0.915-0.574
			c-0.893-0.439-1.733-0.964-2.475-1.629c-0.657-0.589-1.296-1.198-1.944-1.797c-0.238-0.221-0.48-0.439-0.722-0.656
			c-0.164-0.147-0.361-0.165-0.567-0.129c-0.117,0.02-0.167,0.067-0.167,0.186c-0.001,0.18,0,0.362,0.024,0.54
			c0.039,0.288,0.156,0.555,0.271,0.82c0.24,0.548,0.488,1.092,0.729,1.64c0.052,0.117,0.092,0.241,0.125,0.365
			c0.036,0.137-0.005,0.219-0.132,0.276c-0.068,0.032-0.145,0.054-0.219,0.069c-0.301,0.061-0.605,0.074-0.91,0.066
			c-0.614-0.017-1.228-0.031-1.841-0.065c-0.566-0.031-1.133-0.073-1.697-0.134c-0.579-0.063-1.156-0.147-1.731-0.237
			c-0.77-0.121-1.527-0.299-2.262-0.559c-0.64-0.226-1.254-0.502-1.791-0.928c-0.428-0.336-0.819-0.712-1.173-1.123l0,0
			C14.367,21.266,14.162,20.993,13.939,20.736z"/>
		<path style="fill:#030104;" d="M11.437,19.584c-0.103,0.009-0.206,0.03-0.308,0.023c-0.136-0.009-0.199,0.054-0.254,0.171
			c-0.17,0.359-0.352,0.711-0.53,1.067c-0.498,0.997-1.016,1.982-1.634,2.911c-0.148,0.223-0.279,0.458-0.424,0.683
			c-0.197,0.306-0.274,0.644-0.289,0.998c-0.034,0.786,0.077,1.554,0.311,2.304c0.075,0.241,0.172,0.475,0.314,0.687
			c0.117,0.175,0.276,0.293,0.481,0.339c0.213,0.048,0.419,0.01,0.619-0.074c0.374-0.156,0.661-0.414,0.896-0.738
			c0.289-0.396,0.478-0.84,0.627-1.305c0.327-1.023,0.466-2.08,0.552-3.146c0.052-0.653,0.079-1.307,0.121-2.014
			c0-0.247,0.003-0.546-0.001-0.845c-0.004-0.306-0.034-0.607-0.184-0.884C11.669,19.639,11.578,19.572,11.437,19.584z"/>
		<path style="fill:#030104;" d="M18.552,21.478c0.721,0.627,1.478,1.208,2.299,1.7c0.184,0.111,0.382,0.205,0.584,0.278
			c0.328,0.118,0.575,0.037,0.8-0.229c0.133-0.158,0.217-0.343,0.254-0.541c0.071-0.385,0.139-0.771,0.182-1.16
			c0.071-0.652,0.172-1.297,0.334-1.934c0.062-0.244,0.109-0.493,0.151-0.742c0.036-0.212-0.064-0.323-0.281-0.327
			c-0.108-0.002-0.218-0.005-0.325,0.011c-0.26,0.038-0.519,0.082-0.777,0.133c-0.672,0.131-1.344,0.265-2.015,0.403
			c-0.291,0.06-0.572,0.054-0.847-0.068c-0.118-0.052-0.241-0.091-0.359-0.141c-0.241-0.104-0.478-0.219-0.722-0.315
			c-0.157-0.061-0.324-0.096-0.486-0.143c-0.193,0.011-0.326,0.094-0.396,0.265c-0.033,0.08-0.059,0.167-0.064,0.252
			c-0.033,0.502,0.125,0.943,0.443,1.331C17.696,20.702,18.116,21.099,18.552,21.478z"/>
		<path style="fill:#030104;" d="M19.919,9.509c-0.408-0.185-0.816-0.371-1.231-0.54c-0.602-0.244-1.213-0.463-1.844-0.619
			c-0.192-0.047-0.385-0.074-0.582-0.045c-0.137,0.02-0.189,0.07-0.211,0.206c-0.026,0.16-0.027,0.32,0.026,0.474
			c0.056,0.166,0.11,0.333,0.181,0.493c0.3,0.678,0.698,1.299,1.129,1.899c0.593,0.826,1.268,1.576,2.071,2.205
			c0.26,0.204,0.536,0.385,0.838,0.524c0.224,0.103,0.455,0.162,0.704,0.148c0.328-0.018,0.57-0.161,0.702-0.471
			c0.132-0.31,0.158-0.638,0.166-0.941c-0.004-0.365-0.036-0.699-0.122-1.025C21.473,10.781,20.922,9.964,19.919,9.509z"/>
		<path style="fill:#030104;" d="M8.938,11.447c0.458,0.782,1.013,1.495,1.608,2.176c0.452,0.517,0.921,1.019,1.437,1.474
			c0.462,0.408,1.014,0.6,1.55,0.652c0.512,0.01,0.819-0.107,0.934-0.65c0.041-0.195,0.057-0.4,0.049-0.599
			c-0.024-0.595-0.188-1.157-0.435-1.697c-0.314-0.688-0.785-1.221-1.488-1.527c-0.628-0.273-1.255-0.549-1.887-0.814
			c-0.585-0.245-1.175-0.475-1.784-0.653c-0.089-0.026-0.18-0.05-0.271-0.057C8.498,9.741,8.435,9.8,8.416,9.954
			c-0.027,0.215,0.002,0.426,0.09,0.621C8.639,10.871,8.775,11.168,8.938,11.447z"/>
	</g>
</g>
<g>
</g>
<g>
</g>
<g>
</g>
<g>
</g>
<g>
</g>
<g>
</g>
<g>
</g>
<g>
</g>
<g>
</g>
<g>
</g>
<g>
</g>
<g>
</g>
<g>
</g>
<g>
</g>
<g>
</g>
</svg>
