<?xml version="1.0" encoding="iso-8859-1"?>
<!-- Generator: Adobe Illustrator 18.1.1, SVG Export Plug-In . SVG Version: 6.00 Build 0)  -->
<svg version="1.1" id="Capa_1" xmlns="http://www.w3.org/2000/svg" xmlns:xlink="http://www.w3.org/1999/xlink" x="0px" y="0px"
	 viewBox="0 0 225.306 225.306" style="enable-background:new 0 0 225.306 225.306;" xml:space="preserve">
<g>
	<path style="fill:#010002;" d="M120.083,146.272L13.544,39.733l0.489-6.862l91.633,87.731l-91.108-95.16L16.354,0l118.842,131.146
		L120.083,146.272z M149.613,125.173l-37.973,37.973l4.219,4.219l37.973-37.973L149.613,125.173z M207.98,218.698l-2.816,2.822
		c-5.054,5.048-13.235,5.048-18.277,0l-2.822-2.822c-0.245-0.245-0.418-0.513-0.627-0.77L183.361,218l-54.847-54.847l21.105-21.099
		l54.841,54.847l-0.072,0.072c0.257,0.221,0.537,0.388,0.776,0.632l2.816,2.816C213.022,205.463,213.022,213.65,207.98,218.698z
		 M152.089,157.871c-2.142-2.136-5.603-2.136-7.739,0c-2.142,2.13-2.142,5.603,0,7.739c2.13,2.13,5.597,2.13,7.739,0
		C154.213,163.48,154.213,160.008,152.089,157.871z M168.963,174.746c-2.142-2.136-5.603-2.136-7.745,0
		c-2.136,2.13-2.136,5.597,0,7.739c2.136,2.13,5.597,2.13,7.745,0C171.093,180.355,171.093,176.888,168.963,174.746z
		 M185.837,191.632c-2.142-2.136-5.603-2.136-7.739,0c-2.13,2.13-2.13,5.597,0,7.739c1.575,1.575,3.878,1.969,5.842,1.211
		c0.054-0.048,0.084-0.113,0.131-0.161l2.816-2.822c0.06-0.048,0.119-0.084,0.167-0.131
		C187.806,195.51,187.407,193.207,185.837,191.632z"/>
</g>
<g>
</g>
<g>
</g>
<g>
</g>
<g>
</g>
<g>
</g>
<g>
</g>
<g>
</g>
<g>
</g>
<g>
</g>
<g>
</g>
<g>
</g>
<g>
</g>
<g>
</g>
<g>
</g>
<g>
</g>
</svg>
