<?xml version="1.0" encoding="iso-8859-1"?>
<!-- Generator: Adobe Illustrator 18.1.1, SVG Export Plug-In . SVG Version: 6.00 Build 0)  -->
<svg version="1.1" id="Capa_1" xmlns="http://www.w3.org/2000/svg" xmlns:xlink="http://www.w3.org/1999/xlink" x="0px" y="0px"
	 viewBox="0 0 43.454 43.454" style="enable-background:new 0 0 43.454 43.454;" xml:space="preserve">
<g>
	<path style="fill:#1D1C1A;" d="M0.632,17.693c-0.172,0.076-0.346,0.15-0.511,0.223c0.452-0.69,1.318-1.682,2.736-2.125
		c1.378-0.431,2.941-0.253,4.265,0.493c0.677,0.383,1.287,0.893,1.812,1.518c0.542,0.646,0.679,1.55,0.365,2.418
		c-0.314,0.867-0.998,1.475-1.829,1.624c-0.314,0.059-0.653,0.045-0.973-0.003c-0.49-0.069-0.848-0.287-1.062-0.646
		c-0.207-0.346-0.401-0.701-0.595-1.055l-0.442-0.808c-0.13-0.243-0.26-0.485-0.416-0.709c-0.566-0.811-1.268-1.222-2.087-1.222
		C1.501,17.401,1.076,17.499,0.632,17.693z M43.201,25.264c-0.193,0.085-0.387,0.169-0.585,0.238
		c-1.362,0.475-2.387,0.147-3.226-1.007c-0.157-0.216-0.29-0.45-0.421-0.686l-0.113-0.201c-0.08-0.139-0.157-0.28-0.233-0.421
		c-0.131-0.24-0.261-0.481-0.41-0.71c-0.364-0.556-0.752-0.904-1.224-1.096c-0.185-0.075-0.393-0.113-0.62-0.113
		c-0.663,0-1.379,0.33-1.826,0.841c-0.745,0.851-0.763,2.267-0.042,3.295c0.521,0.744,1.267,1.297,2.349,1.739
		c1.977,0.812,3.685,0.612,5.236-0.616c0.336-0.266,0.646-0.571,0.948-0.932c0.111-0.133,0.211-0.265,0.299-0.389
		C43.29,25.225,43.245,25.244,43.201,25.264z M26.722,1.203C26.322,0.642,25.82,0.247,25.428,0c0.008,0.017,0.016,0.034,0.023,0.051
		l0.095,0.212c0.618,1.412,0.269,2.72-0.957,3.588c-0.484,0.343-1.025,0.583-1.538,0.79c-1.045,0.424-1.651,1.295-1.619,2.331
		c0.032,1.071,0.734,1.965,1.787,2.279c0.807,0.237,1.561,0.051,2.348-0.583c1.649-1.329,2.332-3.07,2.029-5.174
		C27.469,2.607,27.174,1.836,26.722,1.203z M21.312,34.602c-0.497-0.467-1.184-0.733-1.885-0.733c-0.648,0-1.259,0.225-1.72,0.632
		c-1.251,1.108-1.989,2.559-2.023,3.979c0.001,2.087,0.8,3.698,2.317,4.687c-0.18-0.479-0.267-1.021-0.27-1.669
		c-0.004-1.06,0.475-1.847,1.385-2.275c0.276-0.13,0.55-0.266,0.815-0.418c0.426-0.242,0.785-0.446,1.123-0.681
		c0.542-0.376,0.868-0.97,0.919-1.672C22.024,35.742,21.771,35.033,21.312,34.602z M8.812,15.036
		c0.24,0.058,0.542-0.023,0.865-0.121c0.106-0.032,0.212-0.064,0.318-0.092c0.921-0.241,1.699-0.566,2.359-0.988
		c-0.133,0.01-0.267,0.023-0.401,0.039c-1.287,0.162-2.404-0.435-2.851-1.464c-0.183-0.422-0.266-0.869-0.322-1.25
		c-0.031-0.208-0.037-0.42-0.042-0.633c-0.004-0.191-0.006-0.381-0.042-0.566C8.485,8.859,7.788,8.092,6.567,7.616
		C6.475,7.58,6.349,7.561,6.206,7.561c-0.099,0-0.198,0.009-0.291,0.024C5.256,7.693,4.701,8.058,4.268,8.671
		c-0.577,0.816-0.639,1.737-0.189,2.815C4.84,13.311,6.3,14.406,8.812,15.036z M34.733,10.541c-0.373-0.12-0.734-0.18-1.075-0.18
		c-0.29,0-0.574,0.043-0.846,0.129c-0.908,0.287-1.496,1.111-1.57,2.204c-0.069,1.014,0.474,1.943,1.383,2.372
		c0.696,0.329,1.452,0.403,2.403,0.232c2.744-0.491,4.669-2.76,4.681-5.518l-0.019-0.276c-0.013-0.229-0.025-0.458-0.058-0.685
		c-0.003-0.026-0.007-0.052-0.012-0.078c-0.065,0.124-0.127,0.247-0.188,0.37c-0.083,0.168-0.161,0.34-0.238,0.511
		c-0.087,0.192-0.174,0.384-0.268,0.573c-0.269,0.538-0.745,0.85-1.308,0.854l-0.305,0.001c-0.656,0-1.156-0.028-1.62-0.092
		c-0.27-0.037-0.486-0.163-0.677-0.274C34.911,10.623,34.812,10.566,34.733,10.541z M10.071,3.605L9.948,3.606l-0.396-0.01
		c-0.052,0-0.103,0.001-0.153,0.009C9.238,3.629,9.08,3.654,8.926,3.685C8.928,3.686,8.93,3.687,8.933,3.689
		c0.09,0.049,0.181,0.099,0.269,0.152c0.119,0.072,0.241,0.14,0.362,0.208c0.312,0.176,0.633,0.357,0.93,0.593
		c0.661,0.527,0.958,1.287,0.816,2.085c-0.084,0.472-0.262,0.921-0.442,1.336c-0.275,0.634-0.537,1.388-0.382,2.182
		c0.176,0.903,1.027,1.863,2.254,1.863c0.26,0,0.533-0.042,0.809-0.127c1.079-0.329,1.62-0.92,1.752-1.917
		c0.085-0.634,0.08-1.265-0.017-1.929C14.91,5.552,12.669,3.605,10.071,3.605z M29.444,12.188c0.03-0.243,0.047-0.491,0.057-0.763
		c0.054-1.39,0.709-2.23,2.003-2.569c0.421-0.111,0.854-0.181,1.288-0.25c0.259-0.041,0.519-0.082,0.776-0.134
		c1.466-0.294,2.127-1.052,2.081-2.386c-0.023-0.675-0.275-1.285-0.71-1.719c-0.592-0.591-1.478-0.655-1.831-0.655
		c-0.117,0-0.204,0.006-0.246,0.012c-0.127,0.016-0.252,0.034-0.375,0.064c-1.982,0.492-4.606,2.802-3.938,6.198
		C28.707,10.789,29.007,11.528,29.444,12.188z M38.122,16.04c-1.225,0.126-2.162,0.594-2.865,1.427
		c-0.517,0.613-0.894,1.281-1.152,2.039c-0.103,0.303-0.177,0.59-0.229,0.85c0.151-0.153,0.305-0.303,0.464-0.447
		c0.616-0.556,1.267-0.839,1.937-0.839c0.544,0,1.111,0.188,1.683,0.561c0.249,0.162,0.481,0.348,0.714,0.535
		c0.11,0.088,0.219,0.176,0.331,0.261c0.646,0.492,1.287,0.731,1.96,0.73l0.105-0.001c0.532-0.019,1.112-0.316,1.552-0.795
		c0.439-0.478,0.675-1.055,0.649-1.583c-0.053-1.078-0.952-2.178-2.047-2.504C40.278,15.992,39.219,15.926,38.122,16.04z
		 M8.718,32.585c0.271,0.098,0.542,0.195,0.816,0.283c0.502,0.162,0.908,0.1,1.234-0.199c0.41-0.374,0.836-0.776,1.162-1.215
		c0.492-0.664,0.492-1.319,0-2.004c-0.259-0.362-0.597-0.695-0.923-1.002c-0.364-0.342-0.838-0.517-1.449-0.532l-0.167-0.002
		c-1.371,0-2.662,0.445-3.945,1.363c-0.318,0.227-0.577,0.489-0.729,0.741c-0.823,1.361-1.129,2.82-0.91,4.336
		c0.003,0.02,0.006,0.04,0.01,0.061c0.012-0.027,0.025-0.055,0.037-0.082c0.172-0.38,0.344-0.759,0.547-1.12
		c0.472-0.841,1.245-1.268,2.204-1.182c0.408,0.037,0.784,0.109,1.118,0.214C8.056,32.348,8.387,32.466,8.718,32.585z M4.425,27.275
		c0.135-0.009,0.322-0.02,0.506-0.042c1.318-0.166,2.354-0.618,3.163-1.382c0.648-0.613,0.986-1.442,1.23-2.174
		c0.098-0.291,0.175-0.591,0.241-0.89c-0.016,0.015-0.033,0.029-0.049,0.044l-0.18,0.16c-0.107,0.094-0.211,0.192-0.315,0.29
		c-0.202,0.19-0.404,0.38-0.624,0.548c-0.651,0.498-1.446,0.574-2.161,0.206c-0.414-0.214-0.792-0.476-1.158-0.729l-0.17-0.117
		c-0.199-0.136-0.392-0.28-0.585-0.425c-0.282-0.21-0.564-0.421-0.864-0.602c-0.322-0.193-0.636-0.291-0.931-0.291
		c-0.239,0-0.466,0.062-0.696,0.189c-0.65,0.36-1.143,0.855-1.464,1.472c-0.352,0.674-0.322,1.31,0.092,1.942
		c0.15,0.231,0.344,0.456,0.576,0.666c0.834,0.756,1.881,1.118,3.293,1.141L4.425,27.275z M16.075,4.853
		c0.312,1.954,1.646,4.137,4.455,4.604c-0.035-0.032-0.07-0.063-0.105-0.096c-0.162-0.147-0.324-0.295-0.472-0.455
		c-0.687-0.74-0.948-1.547-0.776-2.402c0.127-0.63,0.489-1.105,0.827-1.486l0.122-0.136c0.31-0.347,0.602-0.675,0.825-1.035
		c0.397-0.636,0.507-1.283,0.328-1.921c-0.272-0.972-0.881-1.579-1.809-1.802c-0.194-0.047-0.386-0.071-0.57-0.071
		c-0.666,0-1.28,0.311-1.827,0.924c-0.369,0.413-0.633,0.881-0.809,1.43c-0.312,0.976-0.236,2.023-0.232,2.067
		C16.042,4.596,16.054,4.725,16.075,4.853z M32.226,35.968c0.21-0.569,0.391-1.15,0.572-1.73l0.122-0.392
		c0.238-0.758,0.066-1.377-0.54-1.947c-0.541-0.507-1.158-0.765-1.834-0.765c-1.31,0.004-2.004,0.493-2.329,1.635
		c-0.246,0.867-0.273,1.761-0.08,2.656c0.167,0.779,0.585,1.504,1.355,2.352c1.174,1.295,2.386,1.856,3.833,1.788l0.291-0.018
		c0.197-0.011,0.394-0.019,0.584-0.058c0.041-0.009,0.081-0.017,0.121-0.026c-0.579-0.192-1.079-0.506-1.491-0.934
		C32.087,37.755,31.883,36.893,32.226,35.968z M37.535,29.441c-1.269-0.965-2.885-1.068-3.521-1.068
		c-0.237,0-0.417,0.013-0.513,0.028c-0.273,0.042-0.544,0.091-0.81,0.16c-0.695,0.179-1.25,0.461-1.682,0.856
		c0.258,0,0.516,0,0.774,0.01c1.821,0.067,2.759,0.941,2.953,2.749c0.02,0.167,0.032,0.335,0.043,0.504
		c0.022,0.315,0.042,0.614,0.104,0.893c0.396,1.784,1.687,1.978,2.223,1.978c0.411,0,0.834-0.105,1.192-0.297
		c1.028-0.55,1.488-1.722,1.173-2.984C39.201,31.189,38.514,30.184,37.535,29.441z M13.948,31.086c0.004,0.109,0.01,0.22,0.017,0.33
		c0.116,1.814-0.79,2.987-2.487,3.219c-0.369,0.051-0.743,0.065-1.117,0.079c-0.196,0.008-0.393,0.015-0.588,0.028
		c-0.752,0.051-1.185,0.259-1.445,0.694c-0.233,0.391-0.448,0.831-0.641,1.311c-0.115,0.287-0.095,0.576,0.061,0.86
		c0.308,0.562,0.666,1.002,1.095,1.343c0.426,0.34,0.896,0.505,1.436,0.505l-0.001,0.496l0.045-0.496
		c0.823-0.009,1.59-0.297,2.347-0.882c1.034-0.8,1.791-1.915,2.313-3.412c0.139-0.396,0.253-0.818,0.157-1.233
		C14.913,32.959,14.523,32.025,13.948,31.086z M27.084,37.159c-0.283-0.945-0.917-1.736-2.058-2.562
		c-0.727-0.529-1.471-0.825-2.262-0.9c0.014,0.014,0.027,0.027,0.041,0.041c0.098,0.096,0.196,0.191,0.291,0.29l0.193,0.199
		c0.234,0.24,0.468,0.48,0.668,0.746c0.371,0.492,0.478,1.095,0.31,1.744c-0.188,0.725-0.603,1.276-1.004,1.811l-0.141,0.188
		c-0.451,0.61-0.832,1.165-1.163,1.697c-0.026,0.042-0.052,0.171-0.033,0.263c0.147,0.719,0.497,1.396,1.04,2.013
		c0.073,0.082,0.192,0.149,0.254,0.158c0.483,0.071,0.983,0.107,1.49,0.109l0.016,0.498v-0.498c0.977,0,1.627-0.435,2.047-1.367
		c0.189-0.421,0.333-0.862,0.426-1.311c0.112-0.534,0.145-1.02,0.161-1.253c0.004-0.052,0.008-0.115,0.02-0.182
		c-0.007-0.125-0.05-0.444-0.11-0.817C27.222,37.733,27.168,37.442,27.084,37.159z"/>
</g>
<g>
</g>
<g>
</g>
<g>
</g>
<g>
</g>
<g>
</g>
<g>
</g>
<g>
</g>
<g>
</g>
<g>
</g>
<g>
</g>
<g>
</g>
<g>
</g>
<g>
</g>
<g>
</g>
<g>
</g>
</svg>
