<?xml version="1.0" encoding="iso-8859-1"?>
<!-- Generator: Adobe Illustrator 18.1.1, SVG Export Plug-In . SVG Version: 6.00 Build 0)  -->
<svg version="1.1" id="Capa_1" xmlns="http://www.w3.org/2000/svg" xmlns:xlink="http://www.w3.org/1999/xlink" x="0px" y="0px"
	 viewBox="0 0 38.685 38.685" style="enable-background:new 0 0 38.685 38.685;" xml:space="preserve">
<g>
	<g>
		<path style="fill:#030104;" d="M38.209,35.252c-0.936-7.156-2.343-13.938-5.731-20.158c-1.038-1.905-2.589-3.525-3.831-5.325
			c-0.229-0.332-0.465-0.69-0.661-1.06c0.713-0.617,1.44-1.288,2.144-1.992c0.752-0.751,1.471-1.535,2.121-2.292
			c0.654-0.755,1.236-1.487,1.709-2.142c0.959-1.294,1.473-2.282,1.473-2.282s-0.987,0.515-2.281,1.474
			c-0.654,0.472-1.387,1.054-2.143,1.708c-0.758,0.651-1.541,1.369-2.291,2.121c-0.449,0.449-0.881,0.908-1.299,1.367
			c-0.732-3.436-3.537-6.179-7.035-6.61c-3.677-0.453-7.643,1.709-8.525,5.357c-0.121,0.499-0.27,0.971-0.432,1.429
			C10.96,6.329,10.477,5.81,9.97,5.303c-0.751-0.752-1.535-1.47-2.292-2.121C6.923,2.528,6.191,1.946,5.536,1.474
			C4.242,0.515,3.254,0,3.254,0s0.515,0.988,1.474,2.282C5.2,2.936,5.782,3.669,6.436,4.424c0.651,0.758,1.369,1.542,2.121,2.292
			c0.682,0.682,1.387,1.333,2.08,1.934c-0.655,1.235-1.484,2.344-2.49,3.4c-0.293,0.307-0.525,0.678-0.752,1.04
			c-4.4,7.039-6,14.925-6.931,23.005c-0.042,0.361,0.287,1.074,0.527,1.113c2.95,0.483,5.91,0.909,8.869,1.336
			c1.093,0.158,2.032,0.188,2.095,0.067c0.064-0.121-0.794-0.469-1.591-1.233c-1.2-1.152-1.421-2.83-1.542-4.574
			c-0.115-1.655-0.162-3.336-0.505-4.949c-0.296-1.396,0.271-1.864,1.452-2.021c2.65-0.355,5.309-0.652,7.95-1.062
			c0.417-0.064,0.821-0.206,1.232-0.37c0.66-0.265,1.377,0.306,2.158,0.495c0.451,0.111,0.982,0.042,1.423-0.153
			c0.442-0.196,0.785-0.621,1.133-1.126c0.509-0.736,0.722-0.34,1.28,0.613c0.542,0.923,1.645,1.213,2.993,1.404
			c2.854,0.406,2.829,0.562,2.521,3.521c-0.05,0.479-0.007,0.973-0.1,1.443c-0.463,2.345,0.076,5.103-1.848,6.853
			c-0.817,0.743-1.64,1.078-1.549,1.159c0.09,0.082,1.051,0.027,2.146-0.119c2.437-0.328,4.883-0.656,7.368-0.99
			C37.569,37.355,38.352,36.347,38.209,35.252z M16.496,3.455c-1.035,0.738-2.063,1.073-2.295,0.748s0.419-1.188,1.454-1.926
			s2.063-1.073,2.295-0.748C18.183,1.854,17.532,2.716,16.496,3.455z"/>
		<path style="fill:#030104;" d="M27.256,31.111c-0.019-0.178-0.857-0.206-1.873-0.061c-1.018,0.144-1.811,0.442-1.772,0.668
			c0.038,0.225,0.877,0.252,1.873,0.061C26.48,31.588,27.273,31.289,27.256,31.111z"/>
		<path style="fill:#030104;" d="M13.431,31.061c-0.947-0.15-1.735-0.117-1.761,0.073c-0.026,0.189,0.711,0.49,1.645,0.67
			c0.934,0.181,1.723,0.148,1.761-0.072C15.114,31.509,14.378,31.211,13.431,31.061z"/>
		<path style="fill:#030104;" d="M20.491,35.489c-0.149-0.032-0.317-0.05-0.496-0.099c-0.09-0.024-0.178-0.053-0.256-0.065
			c-0.075-0.005-0.162-0.05-0.233-0.062c-0.143-0.014-0.278-0.065-0.406-0.043c-0.128-0.022-0.263,0.031-0.407,0.047
			c-0.067,0.012-0.168,0.051-0.222,0.066c-0.082,0.029-0.159,0.059-0.231,0.084c-0.17,0.061-0.398,0.026-0.538,0.067
			c-0.149,0.024-0.246,0.054-0.246,0.054s-0.009,0.102-0.004,0.252c0.025,0.152-0.014,0.346,0.123,0.557
			c0.065,0.109,0.148,0.231,0.258,0.343c0.113,0.124,0.223,0.188,0.357,0.272c0.132,0.074,0.273,0.159,0.43,0.184
			c0.155,0.04,0.318,0.057,0.479,0.074c0.162-0.017,0.325-0.033,0.48-0.072c0.157-0.021,0.298-0.11,0.431-0.184
			c0.269-0.139,0.457-0.375,0.576-0.588c0.131-0.199,0.152-0.442,0.166-0.588c0.008-0.154-0.01-0.248-0.01-0.248
			S20.652,35.522,20.491,35.489z"/>
	</g>
</g>
<g>
</g>
<g>
</g>
<g>
</g>
<g>
</g>
<g>
</g>
<g>
</g>
<g>
</g>
<g>
</g>
<g>
</g>
<g>
</g>
<g>
</g>
<g>
</g>
<g>
</g>
<g>
</g>
<g>
</g>
</svg>
